<?xml version="1.0" encoding="UTF-8"?>
<!DOCTYPE svg PUBLIC "-//W3C//DTD SVG 1.1//EN" "http://www.w3.org/Graphics/SVG/1.1/DTD/svg11.dtd">
<!-- Creator: CorelDRAW 2018 (64-Bit Evaluation Version) -->
<svg xmlns="http://www.w3.org/2000/svg" xml:space="preserve" width="6.85148in" height="3.67926in" version="1.1" style="shape-rendering:geometricPrecision; text-rendering:geometricPrecision; image-rendering:optimizeQuality; fill-rule:evenodd; clip-rule:evenodd"
viewBox="0 0 7198.24 3865.47"
 xmlns:xlink="http://www.w3.org/1999/xlink">
 <defs>
  <style type="text/css">
   <![CDATA[
    .fil9 {fill:none}
    .fil6 {fill:black}
    .fil3 {fill:#04BCD4}
    .fil5 {fill:#12028A}
    .fil1 {fill:#26FB9A}
    .fil0 {fill:#3092EC}
    .fil2 {fill:#9F8BE0}
    .fil8 {fill:#AB6CFE}
    .fil7 {fill:#F15B28}
    .fil4 {fill:#FCB248}
    .fil10 {fill:#12028A;fill-rule:nonzero}
    .fil11 {fill:white;fill-rule:nonzero}
   ]]>
  </style>
     <clipPath id="id0">
      <path d="M40.69 872.7c-60.05,26.83 -24.78,73.43 -10.01,93.43 24.86,33.66 11.63,6.6 10.46,48.41 -2.3,83.18 34.98,-0.66 -3.53,171.35 -21.58,96.41 -17.61,42.01 -37.62,92.71 30.44,60.75 19.49,21.86 24.78,94.79 4.16,57.5 38.73,54.7 55,68.46l112.3 118.62c67.13,152.61 -22.87,33.85 106.5,127.2 24.26,17.51 48.64,30.53 70.43,49.95 140.8,125.49 130.87,43.6 235.53,32.79 76.76,-7.92 150,23.17 202.78,2.97 27.3,-10.43 50.35,-23.04 85.2,-32.68 16.59,-4.59 22.03,-6.07 25.57,-7.51 -30.96,-8.27 -60.18,-24.49 -84.35,-48.67l-605.52 -605.52c-6.86,-5.19 -13.44,-10.89 -19.7,-17.13l0 0c-37.05,-37.05 -55.43,-85.99 -55.09,-134.82 -0.34,-48.84 18.04,-97.78 55.09,-134.83l0 0c6.25,-6.25 12.84,-11.94 19.7,-17.14l605.52 -605.52c73.45,-73.48 193.63,-73.48 267.08,0l0 0c73.47,73.45 73.44,193.65 0,267.08l-490.39 490.4 490.39 490.38c73.44,73.44 73.47,193.63 0,267.09l0 0c-8.25,8.26 -17.09,15.57 -26.39,21.97 7.85,0.67 14.36,1.65 18.94,2.85 21.75,5.76 24.01,12.04 33.95,26.53 13.45,19.61 3.83,13.96 21.8,31.69 3.89,21.55 3.39,21.1 14.47,35.07l408.15 -1523.25c-44.87,-3.95 -94.89,0.2 -135.64,-47.78 -26.28,-30.95 -12.28,-0.61 -50.09,-18.68 2.08,-47.43 28.01,-32.88 42.64,-65.06 20.65,-45.42 -6.06,-44.01 -22.65,-73.18 12.18,-34.39 23.95,-15.18 28.76,-58.23 -77.27,19.92 1.81,9.68 -65.08,-16.47 -44.47,4.04 -46.11,22.5 -93.99,21.32 -53.28,-1.3 -54.68,-5.12 -108.65,6.69 -51.59,11.29 -38.57,-8.82 -96.31,-3.44 -30.08,2.79 -61.48,14.03 -93.26,18.53 -44.13,6.24 -52.92,1.91 -86.2,26.08 -38.16,27.71 -45.57,15.54 -75.36,37.1 -36.71,26.57 -18.77,34.05 -78.32,24.38l-55.23 -4.17c-22.62,0.53 -30.82,1.93 -54.62,0.29 -20.88,-24.38 -28.07,-59.83 -55.95,-25.74 -47.98,58.64 7.17,80.96 -107.04,134.82 -23.92,11.28 -19.91,7.11 -36.42,24.61 -17.08,18.12 -17.16,16.59 -18.82,36.85 -80.32,104.43 3.38,103.72 -51.26,175.87 -58.98,77.87 -124.33,81.04 -149.63,91.01 -59.71,148.46 -52.81,26.29 -87.29,155.28 -13.79,51.6 -74.34,70.66 -80.64,153.2zm1384.88 1338.57c26.12,25.1 49.54,50.63 61.13,85.85l57.42 138.9c13.05,44.49 -30.15,51.75 10.63,110.83l22.93 23.2c-11.56,51 6.82,52.51 -25,87.15 -19.27,21 -29.91,27.32 -44.29,58.01 -4.45,9.51 -10.52,28.38 -16.6,50.81 54.7,-16.16 112.58,-24.88 172.52,-24.88 335.65,0 607.75,272.1 607.75,607.74 0,218.13 -114.93,409.38 -287.52,516.59 24.01,-4.89 56.77,-8.4 107.55,-8.28 40.17,0.08 139.92,-16.81 163.23,-33.23 3.4,-2.39 13.25,-14.78 16.17,-18.84l12.21 -19.04c28.61,-9.41 56.24,-43.72 80.14,-68.34l43.88 -34.98c24.14,-19.37 8.02,-6.59 21.87,-43.41 47.9,-127.28 64.27,-52.29 87.06,-111.73l22.11 -90.53 -0.93 -80.62c13.29,-3.02 112.61,-46.17 132.76,-57.01 2.72,-47.73 3.94,-106.29 -3.18,-139.96 -11.82,-55.86 -30.15,-55.36 -27.13,-109.43 4.61,-14.15 58.46,-40.24 108.7,-99.73 33.98,-40.24 83.41,-44.08 126.53,-71.34 39.19,-24.78 70.11,-75.22 60.71,-131.51 -10.99,-65.7 -5.81,-125.78 -10.74,-187.58 -17.65,-17.7 -21.41,-12.33 -33.53,-34.82 -15.4,-28.6 1.56,-28.63 -22.05,-42.15 -4.74,-115.48 15.76,-89.55 -29.07,-146.61 7.26,-31.52 64.49,-160.95 80.88,-176.05 21.6,-19.89 40.14,-18.32 68.18,-60.83 100.42,-152.33 291.47,-217.99 314.68,-306.98 35.79,-14.33 8.22,3.95 35.03,-39.7 10.2,-16.62 17.08,-25.18 23.02,-46.22 10.98,-38.87 -0.71,-22.32 19.33,-48.86 1,-1.32 2.85,-3.04 3.89,-4.37l11.16 -14.97c51.82,-77.16 68.65,-119.69 70.55,-212.58l-308.81 67.89c-61.3,17.44 -92.55,-45.61 -93.6,-66.31l3.02 -36.97c-37.33,-30.73 -89.24,-92.6 -116.9,-111.24l-54.51 -30.94c-35.26,-26.13 -31.88,-47.22 -45,-93.28 -22.95,-80.64 -79.54,-65.72 -89.34,-134.46 -13.13,-92.14 10.18,-122.98 -64.21,-165.47 -44.61,-54.62 0.43,-34.77 -42.02,-106.17 -15.69,-26.39 -38.48,-69.75 -50.07,-95.29l-33.75 -87.4c-0.93,-1.74 -2.15,-3.92 -3.16,-5.58 -9.87,-16.32 -58.54,-77.03 -47.24,-104.5 10.2,18.23 21.98,40.14 31.37,59.26 15.19,30.94 15.13,39.44 54.63,47.14l31.04 -100.41c-0.38,-17.22 -22.69,-75.45 -31.04,-92.22 -30.46,2.79 -78.35,10.73 -100.78,2.17 -39.72,-15.16 11.7,-6.64 -40.85,-18.94 -66.62,-15.58 -80.34,41.44 -128.5,34.59 -51.09,-7.28 -58.02,-26.37 -151.83,-38.12 -64.07,-8.02 -18.78,-11.25 -68.41,-25.6 -1.59,-0.46 -18.06,-3.44 -22.08,-4.29 -69.47,-14.84 -43.53,-60.74 -129.9,-47.09l-1.05 0.18 -499.49 1864.09c-7.61,28.39 -21.39,53.56 -39.53,74.44zm109.35 850.37c42.53,84 24.8,82.3 72.03,117.42 3.67,78.32 5.09,129.27 20.75,199.62 20.97,94.16 15.99,70.6 62.74,138.58 30.57,38.01 48.68,89.62 67.37,132.48 128.29,-39.83 221.46,-159.46 221.46,-300.85 0,-173.95 -141.01,-314.96 -314.96,-314.96 -46.12,0 -89.91,9.91 -129.38,27.72zm611.83 -2040.34l0 0c-73.47,73.46 -73.44,193.65 0,267.08l490.39 490.4 -490.39 490.38c-73.44,73.44 -73.47,193.63 0,267.09l0 0c73.45,73.48 193.63,73.48 267.09,0l605.52 -605.52c6.85,-5.2 13.45,-10.89 19.69,-17.14l0 0c37.05,-37.05 55.43,-85.99 55.09,-134.82 0.34,-48.84 -18.04,-97.78 -55.09,-134.83l0 0c-6.24,-6.25 -12.84,-11.94 -19.69,-17.14l-605.52 -605.52c-73.46,-73.48 -193.64,-73.48 -267.09,0z"/>
     </clipPath>
     <clipPath id="id1">
      <path d="M3771.36 872.7c-60.05,26.83 -24.78,73.43 -10.01,93.43 24.86,33.66 11.63,6.6 10.46,48.41 -2.3,83.18 34.98,-0.66 -3.53,171.35 -21.58,96.41 -17.61,42.01 -37.62,92.71 30.44,60.75 19.49,21.86 24.78,94.79 4.16,57.5 38.73,54.7 55,68.46l112.3 118.62c67.13,152.61 -22.87,33.85 106.5,127.2 24.26,17.51 48.64,30.53 70.43,49.95 140.8,125.49 130.87,43.6 235.53,32.79 76.76,-7.92 150,23.17 202.78,2.97 27.3,-10.43 50.35,-23.04 85.2,-32.68 16.59,-4.59 22.03,-6.07 25.57,-7.51 -30.96,-8.27 -60.18,-24.49 -84.35,-48.67l-605.52 -605.52c-6.86,-5.19 -13.44,-10.89 -19.7,-17.13l0 0c-37.05,-37.05 -55.43,-85.99 -55.09,-134.82 -0.34,-48.84 18.04,-97.78 55.09,-134.83l0 0c6.25,-6.25 12.84,-11.94 19.7,-17.14l605.52 -605.52c73.45,-73.48 193.63,-73.48 267.08,0l0 0c73.47,73.45 73.44,193.65 0,267.08l-490.39 490.4 490.39 490.38c73.44,73.44 73.47,193.63 0,267.09l0 0c-8.25,8.26 -17.09,15.57 -26.39,21.97 7.85,0.67 14.36,1.65 18.94,2.85 21.75,5.76 24.01,12.04 33.95,26.53 13.45,19.61 3.83,13.96 21.8,31.69 3.89,21.55 3.39,21.1 14.47,35.07l408.15 -1523.25c-44.87,-3.95 -94.89,0.2 -135.64,-47.78 -26.28,-30.95 -12.28,-0.61 -50.09,-18.68 2.08,-47.43 28.01,-32.88 42.64,-65.06 20.65,-45.42 -6.06,-44.01 -22.65,-73.18 12.18,-34.39 23.95,-15.18 28.76,-58.23 -77.27,19.92 1.81,9.68 -65.08,-16.47 -44.47,4.04 -46.11,22.5 -93.99,21.32 -53.28,-1.3 -54.68,-5.12 -108.65,6.69 -51.59,11.29 -38.57,-8.82 -96.31,-3.44 -30.08,2.79 -61.48,14.03 -93.26,18.53 -44.13,6.24 -52.92,1.91 -86.2,26.08 -38.16,27.71 -45.57,15.54 -75.36,37.1 -36.71,26.57 -18.77,34.05 -78.32,24.38l-55.23 -4.17c-22.62,0.53 -30.82,1.93 -54.62,0.29 -20.88,-24.38 -28.07,-59.83 -55.95,-25.74 -47.98,58.64 7.17,80.96 -107.04,134.82 -23.92,11.28 -19.91,7.11 -36.42,24.61 -17.08,18.12 -17.16,16.59 -18.82,36.85 -80.32,104.43 3.38,103.72 -51.26,175.87 -58.98,77.87 -124.33,81.04 -149.63,91.01 -59.71,148.46 -52.81,26.29 -87.29,155.28 -13.79,51.6 -74.34,70.66 -80.64,153.2zm1384.88 1338.57c26.12,25.1 49.54,50.63 61.13,85.85l57.42 138.9c13.05,44.49 -30.15,51.75 10.63,110.83l22.93 23.2c-11.56,51 6.82,52.51 -25,87.15 -19.27,21 -29.91,27.32 -44.29,58.01 -4.45,9.51 -10.52,28.38 -16.6,50.81 54.7,-16.16 112.58,-24.88 172.52,-24.88 335.65,0 607.75,272.1 607.75,607.74 0,218.13 -114.93,409.38 -287.52,516.59 24.01,-4.89 56.77,-8.4 107.55,-8.28 40.17,0.08 139.92,-16.81 163.23,-33.23 3.4,-2.39 13.25,-14.78 16.17,-18.84l12.21 -19.04c28.61,-9.41 56.24,-43.72 80.14,-68.34l43.88 -34.98c24.14,-19.37 8.02,-6.59 21.87,-43.41 47.9,-127.28 64.27,-52.29 87.06,-111.73l22.11 -90.53 -0.93 -80.62c13.29,-3.02 112.61,-46.17 132.76,-57.01 2.72,-47.73 3.94,-106.29 -3.18,-139.96 -11.82,-55.86 -30.15,-55.36 -27.13,-109.43 4.61,-14.15 58.46,-40.24 108.7,-99.73 33.98,-40.24 83.41,-44.08 126.53,-71.34 39.19,-24.78 70.11,-75.22 60.71,-131.51 -10.99,-65.7 -5.81,-125.78 -10.74,-187.58 -17.65,-17.7 -21.41,-12.33 -33.53,-34.82 -15.4,-28.6 1.56,-28.63 -22.05,-42.15 -4.74,-115.48 15.76,-89.55 -29.07,-146.61 7.26,-31.52 64.49,-160.95 80.88,-176.05 21.6,-19.89 40.14,-18.32 68.18,-60.83 100.42,-152.33 291.47,-217.99 314.68,-306.98 35.79,-14.33 8.22,3.95 35.03,-39.7 10.2,-16.62 17.08,-25.18 23.02,-46.22 10.98,-38.87 -0.71,-22.32 19.33,-48.86 1,-1.32 2.85,-3.04 3.89,-4.37l11.16 -14.97c51.82,-77.16 68.65,-119.69 70.55,-212.58l-308.81 67.89c-61.3,17.44 -92.55,-45.61 -93.6,-66.31l3.02 -36.97c-37.33,-30.73 -89.24,-92.6 -116.9,-111.24l-54.51 -30.94c-35.26,-26.13 -31.88,-47.22 -45,-93.28 -22.95,-80.64 -79.54,-65.72 -89.34,-134.46 -13.13,-92.14 10.18,-122.98 -64.21,-165.47 -44.61,-54.62 0.43,-34.77 -42.02,-106.17 -15.69,-26.39 -38.48,-69.75 -50.07,-95.29l-33.75 -87.4c-0.93,-1.74 -2.15,-3.92 -3.16,-5.58 -9.87,-16.32 -58.54,-77.03 -47.24,-104.5 10.2,18.23 21.98,40.14 31.37,59.26 15.19,30.94 15.13,39.44 54.63,47.14l31.04 -100.41c-0.38,-17.22 -22.69,-75.45 -31.04,-92.22 -30.46,2.79 -78.35,10.73 -100.78,2.17 -39.72,-15.16 11.7,-6.64 -40.85,-18.94 -66.62,-15.58 -80.34,41.44 -128.5,34.59 -51.09,-7.28 -58.02,-26.37 -151.83,-38.12 -64.07,-8.02 -18.78,-11.25 -68.41,-25.6 -1.59,-0.46 -18.06,-3.44 -22.08,-4.29 -69.47,-14.84 -43.53,-60.74 -129.9,-47.09l-1.05 0.18 -499.49 1864.09c-7.61,28.39 -21.39,53.56 -39.53,74.44zm109.35 850.37c42.53,84 24.8,82.3 72.03,117.42 3.67,78.32 5.09,129.27 20.75,199.62 20.97,94.16 15.99,70.6 62.74,138.58 30.57,38.01 48.68,89.62 67.37,132.48 128.29,-39.83 221.46,-159.46 221.46,-300.85 0,-173.95 -141.01,-314.96 -314.96,-314.96 -46.12,0 -89.91,9.91 -129.38,27.72zm611.83 -2040.34l0 0c-73.47,73.46 -73.44,193.65 0,267.08l490.39 490.4 -490.39 490.38c-73.44,73.44 -73.47,193.63 0,267.09l0 0c73.45,73.48 193.63,73.48 267.09,0l605.52 -605.52c6.85,-5.2 13.45,-10.89 19.69,-17.14l0 0c37.05,-37.05 55.43,-85.99 55.09,-134.82 0.34,-48.84 -18.04,-97.78 -55.09,-134.83l0 0c-6.24,-6.25 -12.84,-11.94 -19.69,-17.14l-605.52 -605.52c-73.46,-73.48 -193.64,-73.48 -267.09,0z"/>
     </clipPath>
 </defs>
 <g id="Layer_x0020_1">
  <metadata id="CorelCorpID_0Corel-Layer"/>
  <g id="_2674500900720">
   <g>
    <g>
    </g>
    <g style="clip-path:url(#id0)">
     <g>
      <rect class="fil0" x="-64.95" y="-61" width="319.62" height="157.43" rx="78.72" ry="78.72"/>
      <circle class="fil1" cx="419.65" cy="17.71" r="79.11"/>
      <rect class="fil2" x="580.65" y="-61" width="319.62" height="157.43" rx="78.72" ry="78.72"/>
      <circle class="fil3" cx="1065.25" cy="17.71" r="79.11"/>
      <rect class="fil4" x="-64.95" y="158.44" width="319.62" height="157.43" rx="78.72" ry="78.72"/>
      <rect class="fil2" x="340.53" y="158.44" width="319.62" height="157.43" rx="78.72" ry="78.72"/>
      <rect class="fil1" x="746.02" y="158.44" width="319.62" height="157.43" rx="78.72" ry="78.72"/>
      <rect class="fil5" x="-64.95" y="375.49" width="319.62" height="157.43" rx="78.72" ry="78.72"/>
      <circle class="fil3" cx="419.65" cy="454.21" r="79.11"/>
      <circle class="fil6" cx="661.35" cy="454.21" r="79.11"/>
      <circle class="fil0" cx="14.16" cy="676.83" r="79.11"/>
      <rect class="fil4" x="1184.59" y="-61" width="319.62" height="157.43" rx="78.72" ry="78.72"/>
      <circle class="fil5" cx="1669.18" cy="17.71" r="79.11"/>
      <rect class="fil2" x="1830.19" y="-61" width="319.62" height="157.43" rx="78.72" ry="78.72"/>
      <circle class="fil3" cx="2314.79" cy="17.71" r="79.11"/>
      <rect class="fil7" x="803.87" y="375.49" width="319.62" height="157.43" rx="78.72" ry="78.72"/>
      <circle class="fil2" cx="1646.09" cy="454.21" r="79.11"/>
      <circle class="fil3" cx="1887.79" cy="454.21" r="79.11"/>
      <circle class="fil7" cx="1520.32" cy="676.83" r="79.11"/>
      <circle class="fil7" cx="1221.44" cy="237.15" r="79.11"/>
      <rect class="fil1" x="1363.87" y="158.44" width="319.62" height="157.43" rx="78.72" ry="78.72"/>
      <circle class="fil5" cx="1825.38" cy="237.15" r="79.11"/>
      <rect class="fil8" x="1183.67" y="375.49" width="319.62" height="157.43" rx="78.72" ry="78.72"/>
      <rect class="fil4" x="160.88" y="598.11" width="319.62" height="157.43" rx="78.72" ry="78.72"/>
      <circle class="fil5" cx="645.48" cy="676.83" r="79.11"/>
      <circle class="fil1" cx="887.18" cy="676.83" r="79.11"/>
      <rect class="fil5" x="1045.26" y="598.11" width="319.62" height="157.43" rx="78.72" ry="78.72"/>
      <rect class="fil4" x="1664.71" y="598.11" width="319.62" height="157.43" rx="78.72" ry="78.72"/>
      <circle class="fil3" cx="2149.3" cy="676.83" r="79.11"/>
      <rect class="fil3" x="556.08" y="806.39" width="319.62" height="157.43" rx="78.72" ry="78.72"/>
      <circle class="fil3" cx="1040.68" cy="885.11" r="79.11"/>
      <rect class="fil3" x="1201.68" y="806.39" width="319.62" height="157.43" rx="78.72" ry="78.72"/>
      <circle class="fil3" cx="1686.28" cy="885.11" r="79.11"/>
      <rect class="fil3" x="1805.62" y="806.39" width="319.62" height="157.43" rx="78.72" ry="78.72"/>
      <circle class="fil3" cx="-2.82" cy="885.11" r="79.11"/>
      <rect class="fil3" x="158.18" y="806.39" width="319.62" height="157.43" rx="78.72" ry="78.72"/>
      <rect class="fil0" x="-64.95" y="1037.35" width="319.62" height="157.43" rx="78.72" ry="78.72"/>
      <circle class="fil1" cx="419.65" cy="1116.07" r="79.11"/>
      <rect class="fil2" x="580.65" y="1037.35" width="319.62" height="157.43" rx="78.72" ry="78.72"/>
      <circle class="fil3" cx="1065.25" cy="1116.07" r="79.11"/>
      <rect class="fil4" x="-64.95" y="1256.8" width="319.62" height="157.43" rx="78.72" ry="78.72"/>
      <rect class="fil2" x="340.53" y="1256.8" width="319.62" height="157.43" rx="78.72" ry="78.72"/>
      <rect class="fil1" x="746.02" y="1256.8" width="319.62" height="157.43" rx="78.72" ry="78.72"/>
      <rect class="fil5" x="-64.95" y="1473.85" width="319.62" height="157.43" rx="78.72" ry="78.72"/>
      <circle class="fil3" cx="419.65" cy="1552.57" r="79.11"/>
      <circle class="fil6" cx="661.35" cy="1552.57" r="79.11"/>
      <circle class="fil0" cx="14.16" cy="1775.19" r="79.11"/>
      <rect class="fil4" x="1184.59" y="1037.35" width="319.62" height="157.43" rx="78.72" ry="78.72"/>
      <circle class="fil5" cx="1669.18" cy="1116.07" r="79.11"/>
      <rect class="fil2" x="1830.19" y="1037.35" width="319.62" height="157.43" rx="78.72" ry="78.72"/>
      <circle class="fil3" cx="2314.79" cy="1116.07" r="79.11"/>
      <rect class="fil7" x="803.87" y="1473.85" width="319.62" height="157.43" rx="78.72" ry="78.72"/>
      <circle class="fil2" cx="1646.09" cy="1552.57" r="79.11"/>
      <circle class="fil3" cx="1887.79" cy="1552.57" r="79.11"/>
      <circle class="fil7" cx="1520.32" cy="1775.19" r="79.11"/>
      <circle class="fil7" cx="1221.44" cy="1335.51" r="79.11"/>
      <rect class="fil1" x="1363.87" y="1256.8" width="319.62" height="157.43" rx="78.72" ry="78.72"/>
      <circle class="fil5" cx="1825.38" cy="1335.51" r="79.11"/>
      <rect class="fil8" x="1183.67" y="1473.85" width="319.62" height="157.43" rx="78.72" ry="78.72"/>
      <rect class="fil4" x="160.88" y="1696.47" width="319.62" height="157.43" rx="78.72" ry="78.72"/>
      <circle class="fil5" cx="645.48" cy="1775.19" r="79.11"/>
      <circle class="fil1" cx="887.18" cy="1775.19" r="79.11"/>
      <rect class="fil5" x="1045.26" y="1696.47" width="319.62" height="157.43" rx="78.72" ry="78.72"/>
      <rect class="fil4" x="1664.71" y="1696.47" width="319.62" height="157.43" rx="78.72" ry="78.72"/>
      <circle class="fil3" cx="2149.3" cy="1775.19" r="79.11"/>
      <rect class="fil3" x="556.08" y="1904.75" width="319.62" height="157.43" rx="78.72" ry="78.72"/>
      <circle class="fil3" cx="1040.68" cy="1983.47" r="79.11"/>
      <rect class="fil3" x="1201.68" y="1904.75" width="319.62" height="157.43" rx="78.72" ry="78.72"/>
      <circle class="fil3" cx="1686.28" cy="1983.47" r="79.11"/>
      <rect class="fil3" x="1805.62" y="1904.75" width="319.62" height="157.43" rx="78.72" ry="78.72"/>
      <circle class="fil3" cx="-2.82" cy="1983.47" r="79.11"/>
      <rect class="fil3" x="158.18" y="1904.75" width="319.62" height="157.43" rx="78.72" ry="78.72"/>
      <rect class="fil0" x="4134.86" y="168.18" width="319.62" height="157.43" rx="78.72" ry="78.72"/>
      <circle class="fil1" cx="3969.88" cy="246.89" r="79.11"/>
      <rect class="fil2" x="3489.26" y="168.18" width="319.62" height="157.43" rx="78.72" ry="78.72"/>
      <circle class="fil3" cx="3324.28" cy="246.89" r="79.11"/>
      <rect class="fil4" x="4134.86" y="387.62" width="319.62" height="157.43" rx="78.72" ry="78.72"/>
      <rect class="fil2" x="3729.37" y="387.62" width="319.62" height="157.43" rx="78.72" ry="78.72"/>
      <rect class="fil1" x="3323.89" y="387.62" width="319.62" height="157.43" rx="78.72" ry="78.72"/>
      <rect class="fil5" x="4134.86" y="604.67" width="319.62" height="157.43" rx="78.72" ry="78.72"/>
      <circle class="fil3" cx="3969.88" cy="683.39" r="79.11"/>
      <circle class="fil6" cx="3728.18" cy="683.39" r="79.11"/>
      <circle class="fil0" cx="4375.37" cy="906.01" r="79.11"/>
      <rect class="fil4" x="2885.32" y="168.18" width="319.62" height="157.43" rx="78.72" ry="78.72"/>
      <circle class="fil5" cx="2720.34" cy="246.89" r="79.11"/>
      <rect class="fil2" x="2239.72" y="168.18" width="319.62" height="157.43" rx="78.72" ry="78.72"/>
      <circle class="fil3" cx="2074.74" cy="246.89" r="79.11"/>
      <rect class="fil7" x="3266.04" y="604.67" width="319.62" height="157.43" rx="78.72" ry="78.72"/>
      <circle class="fil2" cx="2743.44" cy="683.39" r="79.11"/>
      <circle class="fil3" cx="2501.74" cy="683.39" r="79.11"/>
      <circle class="fil7" cx="2869.21" cy="906.01" r="79.11"/>
      <circle class="fil7" cx="3168.09" cy="466.33" r="79.11"/>
      <rect class="fil1" x="2706.03" y="387.62" width="319.62" height="157.43" rx="78.72" ry="78.72"/>
      <circle class="fil5" cx="2564.15" cy="466.33" r="79.11"/>
      <rect class="fil8" x="2886.23" y="604.67" width="319.62" height="157.43" rx="78.72" ry="78.72"/>
      <rect class="fil4" x="3909.03" y="827.3" width="319.62" height="157.43" rx="78.72" ry="78.72"/>
      <circle class="fil5" cx="3744.05" cy="906.01" r="79.11"/>
      <circle class="fil1" cx="3502.35" cy="906.01" r="79.11"/>
      <rect class="fil5" x="3024.64" y="827.3" width="319.62" height="157.43" rx="78.72" ry="78.72"/>
      <rect class="fil4" x="2405.2" y="827.3" width="319.62" height="157.43" rx="78.72" ry="78.72"/>
      <circle class="fil3" cx="2240.22" cy="906.01" r="79.11"/>
      <rect class="fil3" x="3513.83" y="1035.57" width="319.62" height="157.43" rx="78.72" ry="78.72"/>
      <circle class="fil3" cx="3348.85" cy="1114.29" r="79.11"/>
      <rect class="fil3" x="2868.22" y="1035.57" width="319.62" height="157.43" rx="78.72" ry="78.72"/>
      <circle class="fil3" cx="2703.25" cy="1114.29" r="79.11"/>
      <rect class="fil3" x="2264.29" y="1035.57" width="319.62" height="157.43" rx="78.72" ry="78.72"/>
      <circle class="fil3" cx="4392.35" cy="1114.29" r="79.11"/>
      <rect class="fil3" x="3911.73" y="1035.57" width="319.62" height="157.43" rx="78.72" ry="78.72"/>
      <rect class="fil0" x="4134.86" y="1266.53" width="319.62" height="157.43" rx="78.72" ry="78.72"/>
      <circle class="fil1" cx="3969.88" cy="1345.25" r="79.11"/>
      <rect class="fil2" x="3489.26" y="1266.53" width="319.62" height="157.43" rx="78.72" ry="78.72"/>
      <circle class="fil3" cx="3324.28" cy="1345.25" r="79.11"/>
      <rect class="fil4" x="4134.86" y="1485.98" width="319.62" height="157.43" rx="78.72" ry="78.72"/>
      <rect class="fil2" x="3729.37" y="1485.98" width="319.62" height="157.43" rx="78.72" ry="78.72"/>
      <rect class="fil1" x="3323.89" y="1485.98" width="319.62" height="157.43" rx="78.72" ry="78.72"/>
      <rect class="fil5" x="4134.86" y="1703.03" width="319.62" height="157.43" rx="78.72" ry="78.72"/>
      <circle class="fil3" cx="3969.88" cy="1781.75" r="79.11"/>
      <circle class="fil6" cx="3728.18" cy="1781.75" r="79.11"/>
      <circle class="fil0" cx="4375.37" cy="2004.37" r="79.11"/>
      <rect class="fil4" x="2885.32" y="1266.53" width="319.62" height="157.43" rx="78.72" ry="78.72"/>
      <circle class="fil5" cx="2720.34" cy="1345.25" r="79.11"/>
      <rect class="fil2" x="2239.72" y="1266.53" width="319.62" height="157.43" rx="78.72" ry="78.72"/>
      <circle class="fil3" cx="2074.74" cy="1345.25" r="79.11"/>
      <rect class="fil7" x="3266.04" y="1703.03" width="319.62" height="157.43" rx="78.72" ry="78.72"/>
      <circle class="fil2" cx="2743.44" cy="1781.75" r="79.11"/>
      <circle class="fil3" cx="2501.74" cy="1781.75" r="79.11"/>
      <circle class="fil7" cx="2869.21" cy="2004.37" r="79.11"/>
      <circle class="fil7" cx="3168.09" cy="1564.69" r="79.11"/>
      <rect class="fil1" x="2706.03" y="1485.98" width="319.62" height="157.43" rx="78.72" ry="78.72"/>
      <circle class="fil5" cx="2564.15" cy="1564.69" r="79.11"/>
      <rect class="fil8" x="2886.23" y="1703.03" width="319.62" height="157.43" rx="78.72" ry="78.72"/>
      <rect class="fil4" x="3909.03" y="1925.65" width="319.62" height="157.43" rx="78.72" ry="78.72"/>
      <circle class="fil5" cx="3744.05" cy="2004.37" r="79.11"/>
      <circle class="fil1" cx="3502.35" cy="2004.37" r="79.11"/>
      <rect class="fil5" x="3024.64" y="1925.65" width="319.62" height="157.43" rx="78.72" ry="78.72"/>
      <rect class="fil4" x="2405.2" y="1925.65" width="319.62" height="157.43" rx="78.72" ry="78.72"/>
      <circle class="fil3" cx="2240.22" cy="2004.37" r="79.11"/>
      <rect class="fil3" x="3513.83" y="2133.93" width="319.62" height="157.43" rx="78.72" ry="78.72"/>
      <circle class="fil3" cx="3348.85" cy="2212.65" r="79.11"/>
      <rect class="fil3" x="2868.22" y="2133.93" width="319.62" height="157.43" rx="78.72" ry="78.72"/>
      <circle class="fil3" cx="2703.25" cy="2212.65" r="79.11"/>
      <rect class="fil3" x="2264.29" y="2133.93" width="319.62" height="157.43" rx="78.72" ry="78.72"/>
      <circle class="fil3" cx="4392.35" cy="2212.65" r="79.11"/>
      <rect class="fil3" x="3911.73" y="2133.93" width="319.62" height="157.43" rx="78.72" ry="78.72"/>
      <rect class="fil0" x="-29.46" y="2133.91" width="319.62" height="157.43" rx="78.72" ry="78.72"/>
      <circle class="fil1" cx="455.14" cy="2212.62" r="79.11"/>
      <rect class="fil2" x="616.14" y="2133.91" width="319.62" height="157.43" rx="78.72" ry="78.72"/>
      <circle class="fil3" cx="1100.74" cy="2212.62" r="79.11"/>
      <rect class="fil4" x="-29.46" y="2353.35" width="319.62" height="157.43" rx="78.72" ry="78.72"/>
      <rect class="fil2" x="376.02" y="2353.35" width="319.62" height="157.43" rx="78.72" ry="78.72"/>
      <rect class="fil1" x="781.51" y="2353.35" width="319.62" height="157.43" rx="78.72" ry="78.72"/>
      <rect class="fil5" x="-29.46" y="2570.4" width="319.62" height="157.43" rx="78.72" ry="78.72"/>
      <circle class="fil3" cx="455.14" cy="2649.12" r="79.11"/>
      <circle class="fil6" cx="696.84" cy="2649.12" r="79.11"/>
      <circle class="fil0" cx="49.65" cy="2871.74" r="79.11"/>
      <rect class="fil4" x="1220.08" y="2133.91" width="319.62" height="157.43" rx="78.72" ry="78.72"/>
      <circle class="fil5" cx="1704.67" cy="2212.62" r="79.11"/>
      <rect class="fil2" x="1865.68" y="2133.91" width="319.62" height="157.43" rx="78.72" ry="78.72"/>
      <circle class="fil3" cx="2350.28" cy="2212.62" r="79.11"/>
      <rect class="fil7" x="839.36" y="2570.4" width="319.62" height="157.43" rx="78.72" ry="78.72"/>
      <circle class="fil2" cx="1681.58" cy="2649.12" r="79.11"/>
      <circle class="fil3" cx="1923.28" cy="2649.12" r="79.11"/>
      <circle class="fil7" cx="1555.81" cy="2871.74" r="79.11"/>
      <circle class="fil7" cx="1256.93" cy="2432.06" r="79.11"/>
      <rect class="fil1" x="1399.36" y="2353.35" width="319.62" height="157.43" rx="78.72" ry="78.72"/>
      <circle class="fil5" cx="1860.87" cy="2432.06" r="79.11"/>
      <rect class="fil8" x="1219.16" y="2570.4" width="319.62" height="157.43" rx="78.72" ry="78.72"/>
      <rect class="fil4" x="196.37" y="2793.03" width="319.62" height="157.43" rx="78.72" ry="78.72"/>
      <circle class="fil5" cx="680.97" cy="2871.74" r="79.11"/>
      <circle class="fil1" cx="922.67" cy="2871.74" r="79.11"/>
      <rect class="fil5" x="1080.75" y="2793.03" width="319.62" height="157.43" rx="78.72" ry="78.72"/>
      <rect class="fil4" x="1700.2" y="2793.03" width="319.62" height="157.43" rx="78.72" ry="78.72"/>
      <circle class="fil3" cx="2184.79" cy="2871.74" r="79.11"/>
      <rect class="fil3" x="591.57" y="3001.3" width="319.62" height="157.43" rx="78.72" ry="78.72"/>
      <circle class="fil3" cx="1076.17" cy="3080.02" r="79.11"/>
      <rect class="fil3" x="1237.17" y="3001.3" width="319.62" height="157.43" rx="78.72" ry="78.72"/>
      <circle class="fil3" cx="1721.77" cy="3080.02" r="79.11"/>
      <rect class="fil3" x="1841.11" y="3001.3" width="319.62" height="157.43" rx="78.72" ry="78.72"/>
      <circle class="fil3" cx="32.67" cy="3080.02" r="79.11"/>
      <rect class="fil3" x="193.67" y="3001.3" width="319.62" height="157.43" rx="78.72" ry="78.72"/>
      <rect class="fil0" x="-29.46" y="3232.27" width="319.62" height="157.43" rx="78.72" ry="78.72"/>
      <circle class="fil1" cx="455.14" cy="3310.98" r="79.11"/>
      <rect class="fil2" x="616.14" y="3232.27" width="319.62" height="157.43" rx="78.72" ry="78.72"/>
      <circle class="fil3" cx="1100.74" cy="3310.98" r="79.11"/>
      <rect class="fil4" x="-29.46" y="3451.71" width="319.62" height="157.43" rx="78.72" ry="78.72"/>
      <rect class="fil2" x="376.02" y="3451.71" width="319.62" height="157.43" rx="78.72" ry="78.72"/>
      <rect class="fil1" x="781.51" y="3451.71" width="319.62" height="157.43" rx="78.72" ry="78.72"/>
      <rect class="fil5" x="-29.46" y="3668.76" width="319.62" height="157.43" rx="78.72" ry="78.72"/>
      <circle class="fil3" cx="455.14" cy="3747.48" r="79.11"/>
      <circle class="fil6" cx="696.84" cy="3747.48" r="79.11"/>
      <circle class="fil0" cx="49.65" cy="3970.1" r="79.11"/>
      <rect class="fil4" x="1220.08" y="3232.27" width="319.62" height="157.43" rx="78.72" ry="78.72"/>
      <circle class="fil5" cx="1704.67" cy="3310.98" r="79.11"/>
      <rect class="fil2" x="1865.68" y="3232.27" width="319.62" height="157.43" rx="78.72" ry="78.72"/>
      <circle class="fil3" cx="2350.28" cy="3310.98" r="79.11"/>
      <rect class="fil7" x="839.36" y="3668.76" width="319.62" height="157.43" rx="78.72" ry="78.72"/>
      <circle class="fil2" cx="1681.58" cy="3747.48" r="79.11"/>
      <circle class="fil3" cx="1923.28" cy="3747.48" r="79.11"/>
      <circle class="fil7" cx="1555.81" cy="3970.1" r="79.11"/>
      <circle class="fil7" cx="1256.93" cy="3530.42" r="79.11"/>
      <rect class="fil1" x="1399.36" y="3451.71" width="319.62" height="157.43" rx="78.72" ry="78.72"/>
      <circle class="fil5" cx="1860.87" cy="3530.42" r="79.11"/>
      <rect class="fil8" x="1219.16" y="3668.76" width="319.62" height="157.43" rx="78.72" ry="78.72"/>
      <rect class="fil4" x="196.37" y="3891.38" width="319.62" height="157.43" rx="78.72" ry="78.72"/>
      <circle class="fil5" cx="680.97" cy="3970.1" r="79.11"/>
      <circle class="fil1" cx="922.67" cy="3970.1" r="79.11"/>
      <rect class="fil5" x="1080.75" y="3891.38" width="319.62" height="157.43" rx="78.72" ry="78.72"/>
      <rect class="fil4" x="1700.2" y="3891.38" width="319.62" height="157.43" rx="78.72" ry="78.72"/>
      <circle class="fil3" cx="2184.79" cy="3970.1" r="79.11"/>
      <rect class="fil3" x="591.57" y="4099.66" width="319.62" height="157.43" rx="78.72" ry="78.72"/>
      <circle class="fil3" cx="1076.17" cy="4178.38" r="79.11"/>
      <rect class="fil3" x="1237.17" y="4099.66" width="319.62" height="157.43" rx="78.72" ry="78.72"/>
      <circle class="fil3" cx="1721.77" cy="4178.38" r="79.11"/>
      <rect class="fil3" x="1841.11" y="4099.66" width="319.62" height="157.43" rx="78.72" ry="78.72"/>
      <circle class="fil3" cx="32.67" cy="4178.38" r="79.11"/>
      <rect class="fil3" x="193.67" y="4099.66" width="319.62" height="157.43" rx="78.72" ry="78.72"/>
      <rect class="fil0" x="4170.35" y="2363.09" width="319.62" height="157.43" rx="78.72" ry="78.72"/>
      <circle class="fil1" cx="4005.37" cy="2441.81" r="79.11"/>
      <rect class="fil2" x="3524.75" y="2363.09" width="319.62" height="157.43" rx="78.72" ry="78.72"/>
      <circle class="fil3" cx="3359.77" cy="2441.81" r="79.11"/>
      <rect class="fil4" x="4170.35" y="2582.53" width="319.62" height="157.43" rx="78.72" ry="78.72"/>
      <rect class="fil2" x="3764.86" y="2582.53" width="319.62" height="157.43" rx="78.72" ry="78.72"/>
      <rect class="fil1" x="3359.38" y="2582.53" width="319.62" height="157.43" rx="78.72" ry="78.72"/>
      <rect class="fil5" x="4170.35" y="2799.59" width="319.62" height="157.43" rx="78.72" ry="78.72"/>
      <circle class="fil3" cx="4005.37" cy="2878.3" r="79.11"/>
      <circle class="fil6" cx="3763.67" cy="2878.3" r="79.11"/>
      <circle class="fil0" cx="4410.86" cy="3100.92" r="79.11"/>
      <rect class="fil4" x="2920.81" y="2363.09" width="319.62" height="157.43" rx="78.72" ry="78.72"/>
      <circle class="fil5" cx="2755.83" cy="2441.81" r="79.11"/>
      <rect class="fil2" x="2275.21" y="2363.09" width="319.62" height="157.43" rx="78.72" ry="78.72"/>
      <circle class="fil3" cx="2110.23" cy="2441.81" r="79.11"/>
      <rect class="fil7" x="3301.53" y="2799.59" width="319.62" height="157.43" rx="78.72" ry="78.72"/>
      <circle class="fil2" cx="2778.93" cy="2878.3" r="79.11"/>
      <circle class="fil3" cx="2537.23" cy="2878.3" r="79.11"/>
      <circle class="fil7" cx="2904.7" cy="3100.92" r="79.11"/>
      <circle class="fil7" cx="3203.58" cy="2661.25" r="79.11"/>
      <rect class="fil1" x="2741.52" y="2582.53" width="319.62" height="157.43" rx="78.72" ry="78.72"/>
      <circle class="fil5" cx="2599.64" cy="2661.25" r="79.11"/>
      <rect class="fil8" x="2921.72" y="2799.59" width="319.62" height="157.43" rx="78.72" ry="78.72"/>
      <rect class="fil4" x="3944.52" y="3022.21" width="319.62" height="157.43" rx="78.72" ry="78.72"/>
      <circle class="fil5" cx="3779.54" cy="3100.92" r="79.11"/>
      <circle class="fil1" cx="3537.84" cy="3100.92" r="79.11"/>
      <rect class="fil5" x="3060.13" y="3022.21" width="319.62" height="157.43" rx="78.72" ry="78.72"/>
      <rect class="fil4" x="2440.69" y="3022.21" width="319.62" height="157.43" rx="78.72" ry="78.72"/>
      <circle class="fil3" cx="2275.71" cy="3100.92" r="79.11"/>
      <rect class="fil3" x="3549.32" y="3230.48" width="319.62" height="157.43" rx="78.72" ry="78.72"/>
      <circle class="fil3" cx="3384.34" cy="3309.2" r="79.11"/>
      <rect class="fil3" x="2903.71" y="3230.48" width="319.62" height="157.43" rx="78.72" ry="78.72"/>
      <circle class="fil3" cx="2738.74" cy="3309.2" r="79.11"/>
      <rect class="fil3" x="2299.78" y="3230.48" width="319.62" height="157.43" rx="78.72" ry="78.72"/>
      <circle class="fil3" cx="4427.84" cy="3309.2" r="79.11"/>
      <rect class="fil3" x="3947.22" y="3230.48" width="319.62" height="157.43" rx="78.72" ry="78.72"/>
      <rect class="fil0" x="4170.35" y="3461.45" width="319.62" height="157.43" rx="78.72" ry="78.72"/>
      <circle class="fil1" cx="4005.37" cy="3540.16" r="79.11"/>
      <rect class="fil2" x="3524.75" y="3461.45" width="319.62" height="157.43" rx="78.72" ry="78.72"/>
      <circle class="fil3" cx="3359.77" cy="3540.16" r="79.11"/>
      <rect class="fil4" x="4170.35" y="3680.89" width="319.62" height="157.43" rx="78.72" ry="78.72"/>
      <rect class="fil2" x="3764.86" y="3680.89" width="319.62" height="157.43" rx="78.72" ry="78.72"/>
      <rect class="fil1" x="3359.38" y="3680.89" width="319.62" height="157.43" rx="78.72" ry="78.72"/>
      <rect class="fil5" x="4170.35" y="3897.94" width="319.62" height="157.43" rx="78.72" ry="78.72"/>
      <circle class="fil3" cx="4005.37" cy="3976.66" r="79.11"/>
      <circle class="fil6" cx="3763.67" cy="3976.66" r="79.11"/>
      <circle class="fil0" cx="4410.86" cy="4199.28" r="79.11"/>
      <rect class="fil4" x="2920.81" y="3461.45" width="319.62" height="157.43" rx="78.72" ry="78.72"/>
      <circle class="fil5" cx="2755.83" cy="3540.16" r="79.11"/>
      <rect class="fil2" x="2275.21" y="3461.45" width="319.62" height="157.43" rx="78.72" ry="78.72"/>
      <circle class="fil3" cx="2110.23" cy="3540.16" r="79.11"/>
      <rect class="fil7" x="3301.53" y="3897.94" width="319.62" height="157.43" rx="78.72" ry="78.72"/>
      <circle class="fil2" cx="2778.93" cy="3976.66" r="79.11"/>
      <circle class="fil3" cx="2537.23" cy="3976.66" r="79.11"/>
      <circle class="fil7" cx="2904.7" cy="4199.28" r="79.11"/>
      <circle class="fil7" cx="3203.58" cy="3759.6" r="79.11"/>
      <rect class="fil1" x="2741.52" y="3680.89" width="319.62" height="157.43" rx="78.72" ry="78.72"/>
      <circle class="fil5" cx="2599.64" cy="3759.6" r="79.11"/>
      <rect class="fil8" x="2921.72" y="3897.94" width="319.62" height="157.43" rx="78.72" ry="78.72"/>
      <rect class="fil4" x="3944.52" y="4120.57" width="319.62" height="157.43" rx="78.72" ry="78.72"/>
      <circle class="fil5" cx="3779.54" cy="4199.28" r="79.11"/>
      <circle class="fil1" cx="3537.84" cy="4199.28" r="79.11"/>
      <rect class="fil5" x="3060.13" y="4120.57" width="319.62" height="157.43" rx="78.72" ry="78.72"/>
      <rect class="fil4" x="2440.69" y="4120.57" width="319.62" height="157.43" rx="78.72" ry="78.72"/>
      <circle class="fil3" cx="2275.71" cy="4199.28" r="79.11"/>
      <rect class="fil3" x="3549.32" y="4328.84" width="319.62" height="157.43" rx="78.72" ry="78.72"/>
      <circle class="fil3" cx="3384.34" cy="4407.56" r="79.11"/>
      <rect class="fil3" x="2903.71" y="4328.84" width="319.62" height="157.43" rx="78.72" ry="78.72"/>
      <circle class="fil3" cx="2738.74" cy="4407.56" r="79.11"/>
      <rect class="fil3" x="2299.78" y="4328.84" width="319.62" height="157.43" rx="78.72" ry="78.72"/>
      <circle class="fil3" cx="4427.84" cy="4407.56" r="79.11"/>
      <rect class="fil3" x="3947.22" y="4328.84" width="319.62" height="157.43" rx="78.72" ry="78.72"/>
     </g>
    </g>
    <path class="fil9" d="M40.69 872.7c-60.05,26.83 -24.78,73.43 -10.01,93.43 24.86,33.66 11.63,6.6 10.46,48.41 -2.3,83.18 34.98,-0.66 -3.53,171.35 -21.58,96.41 -17.61,42.01 -37.62,92.71 30.44,60.75 19.49,21.86 24.78,94.79 4.16,57.5 38.73,54.7 55,68.46l112.3 118.62c67.13,152.61 -22.87,33.85 106.5,127.2 24.26,17.51 48.64,30.53 70.43,49.95 140.8,125.49 130.87,43.6 235.53,32.79 76.76,-7.92 150,23.17 202.78,2.97 27.3,-10.43 50.35,-23.04 85.2,-32.68 16.59,-4.59 22.03,-6.07 25.57,-7.51 -30.96,-8.27 -60.18,-24.49 -84.35,-48.67l-605.52 -605.52c-6.86,-5.19 -13.44,-10.89 -19.7,-17.13l0 0c-37.05,-37.05 -55.43,-85.99 -55.09,-134.82 -0.34,-48.84 18.04,-97.78 55.09,-134.83l0 0c6.25,-6.25 12.84,-11.94 19.7,-17.14l605.52 -605.52c73.45,-73.48 193.63,-73.48 267.08,0l0 0c73.47,73.45 73.44,193.65 0,267.08l-490.39 490.4 490.39 490.38c73.44,73.44 73.47,193.63 0,267.09l0 0c-8.25,8.26 -17.09,15.57 -26.39,21.97 7.85,0.67 14.36,1.65 18.94,2.85 21.75,5.76 24.01,12.04 33.95,26.53 13.45,19.61 3.83,13.96 21.8,31.69 3.89,21.55 3.39,21.1 14.47,35.07l408.15 -1523.25c-44.87,-3.95 -94.89,0.2 -135.64,-47.78 -26.28,-30.95 -12.28,-0.61 -50.09,-18.68 2.08,-47.43 28.01,-32.88 42.64,-65.06 20.65,-45.42 -6.06,-44.01 -22.65,-73.18 12.18,-34.39 23.95,-15.18 28.76,-58.23 -77.27,19.92 1.81,9.68 -65.08,-16.47 -44.47,4.04 -46.11,22.5 -93.99,21.32 -53.28,-1.3 -54.68,-5.12 -108.65,6.69 -51.59,11.29 -38.57,-8.82 -96.31,-3.44 -30.08,2.79 -61.48,14.03 -93.26,18.53 -44.13,6.24 -52.92,1.91 -86.2,26.08 -38.16,27.71 -45.57,15.54 -75.36,37.1 -36.71,26.57 -18.77,34.05 -78.32,24.38l-55.23 -4.17c-22.62,0.53 -30.82,1.93 -54.62,0.29 -20.88,-24.38 -28.07,-59.83 -55.95,-25.74 -47.98,58.64 7.17,80.96 -107.04,134.82 -23.92,11.28 -19.91,7.11 -36.42,24.61 -17.08,18.12 -17.16,16.59 -18.82,36.85 -80.32,104.43 3.38,103.72 -51.26,175.87 -58.98,77.87 -124.33,81.04 -149.63,91.01 -59.71,148.46 -52.81,26.29 -87.29,155.28 -13.79,51.6 -74.34,70.66 -80.64,153.2zm1384.88 1338.57c26.12,25.1 49.54,50.63 61.13,85.85l57.42 138.9c13.05,44.49 -30.15,51.75 10.63,110.83l22.93 23.2c-11.56,51 6.82,52.51 -25,87.15 -19.27,21 -29.91,27.32 -44.29,58.01 -4.45,9.51 -10.52,28.38 -16.6,50.81 54.7,-16.16 112.58,-24.88 172.52,-24.88 335.65,0 607.75,272.1 607.75,607.74 0,218.13 -114.93,409.38 -287.52,516.59 24.01,-4.89 56.77,-8.4 107.55,-8.28 40.17,0.08 139.92,-16.81 163.23,-33.23 3.4,-2.39 13.25,-14.78 16.17,-18.84l12.21 -19.04c28.61,-9.41 56.24,-43.72 80.14,-68.34l43.88 -34.98c24.14,-19.37 8.02,-6.59 21.87,-43.41 47.9,-127.28 64.27,-52.29 87.06,-111.73l22.11 -90.53 -0.93 -80.62c13.29,-3.02 112.61,-46.17 132.76,-57.01 2.72,-47.73 3.94,-106.29 -3.18,-139.96 -11.82,-55.86 -30.15,-55.36 -27.13,-109.43 4.61,-14.15 58.46,-40.24 108.7,-99.73 33.98,-40.24 83.41,-44.08 126.53,-71.34 39.19,-24.78 70.11,-75.22 60.71,-131.51 -10.99,-65.7 -5.81,-125.78 -10.74,-187.58 -17.65,-17.7 -21.41,-12.33 -33.53,-34.82 -15.4,-28.6 1.56,-28.63 -22.05,-42.15 -4.74,-115.48 15.76,-89.55 -29.07,-146.61 7.26,-31.52 64.49,-160.95 80.88,-176.05 21.6,-19.89 40.14,-18.32 68.18,-60.83 100.42,-152.33 291.47,-217.99 314.68,-306.98 35.79,-14.33 8.22,3.95 35.03,-39.7 10.2,-16.62 17.08,-25.18 23.02,-46.22 10.98,-38.87 -0.71,-22.32 19.33,-48.86 1,-1.32 2.85,-3.04 3.89,-4.37l11.16 -14.97c51.82,-77.16 68.65,-119.69 70.55,-212.58l-308.81 67.89c-61.3,17.44 -92.55,-45.61 -93.6,-66.31l3.02 -36.97c-37.33,-30.73 -89.24,-92.6 -116.9,-111.24l-54.51 -30.94c-35.26,-26.13 -31.88,-47.22 -45,-93.28 -22.95,-80.64 -79.54,-65.72 -89.34,-134.46 -13.13,-92.14 10.18,-122.98 -64.21,-165.47 -44.61,-54.62 0.43,-34.77 -42.02,-106.17 -15.69,-26.39 -38.48,-69.75 -50.07,-95.29l-33.75 -87.4c-0.93,-1.74 -2.15,-3.92 -3.16,-5.58 -9.87,-16.32 -58.54,-77.03 -47.24,-104.5 10.2,18.23 21.98,40.14 31.37,59.26 15.19,30.94 15.13,39.44 54.63,47.14l31.04 -100.41c-0.38,-17.22 -22.69,-75.45 -31.04,-92.22 -30.46,2.79 -78.35,10.73 -100.78,2.17 -39.72,-15.16 11.7,-6.64 -40.85,-18.94 -66.62,-15.58 -80.34,41.44 -128.5,34.59 -51.09,-7.28 -58.02,-26.37 -151.83,-38.12 -64.07,-8.02 -18.78,-11.25 -68.41,-25.6 -1.59,-0.46 -18.06,-3.44 -22.08,-4.29 -69.47,-14.84 -43.53,-60.74 -129.9,-47.09l-1.05 0.18 -499.49 1864.09c-7.61,28.39 -21.39,53.56 -39.53,74.44zm109.35 850.37c42.53,84 24.8,82.3 72.03,117.42 3.67,78.32 5.09,129.27 20.75,199.62 20.97,94.16 15.99,70.6 62.74,138.58 30.57,38.01 48.68,89.62 67.37,132.48 128.29,-39.83 221.46,-159.46 221.46,-300.85 0,-173.95 -141.01,-314.96 -314.96,-314.96 -46.12,0 -89.91,9.91 -129.38,27.72zm611.83 -2040.34l0 0c-73.47,73.46 -73.44,193.65 0,267.08l490.39 490.4 -490.39 490.38c-73.44,73.44 -73.47,193.63 0,267.09l0 0c73.45,73.48 193.63,73.48 267.09,0l605.52 -605.52c6.85,-5.2 13.45,-10.89 19.69,-17.14l0 0c37.05,-37.05 55.43,-85.99 55.09,-134.82 0.34,-48.84 -18.04,-97.78 -55.09,-134.83l0 0c-6.24,-6.25 -12.84,-11.94 -19.69,-17.14l-605.52 -605.52c-73.46,-73.48 -193.64,-73.48 -267.09,0z"/>
    <path class="fil10" d="M339.84 2348.36c-58.89,0 -99.73,-43.5 -99.73,-103.44 0,-59.94 40.85,-103.44 99.73,-103.44 47.74,0 79.57,27.58 89.12,72.67l92.3 0c-11.68,-93.36 -82.75,-156.49 -180.9,-156.49 -108.74,0 -190.97,78.51 -190.97,187.26 0,108.75 82.22,187.25 190.97,187.25 98.14,0 169.22,-63.13 180.9,-156.48l-92.3 0c-9.55,45.09 -41.38,72.67 -89.12,72.67zm315.63 -187.26c-82.75,0 -141.63,56.76 -141.63,135.8 0,79.57 58.88,135.27 141.63,135.27 82.75,0 141.1,-55.7 141.1,-135.27 0,-79.04 -58.35,-135.8 -141.1,-135.8zm0 199.45c-36.07,0 -61.01,-25.99 -61.01,-63.66 0,-37.13 24.94,-63.65 61.01,-63.65 35.54,0 60.47,26.52 60.47,63.65 0,37.66 -24.93,63.66 -60.47,63.66zm333.15 -311.91l0 133.67c-19.1,-12.73 -41.91,-20.15 -70.55,-20.15 -69.49,0 -127.84,58.35 -127.84,134.73 0,76.91 58.35,135.27 127.84,135.27 28.64,0 51.45,-7.42 70.55,-19.63l0 12.73 85.94 0 0 -376.63 -85.94 0zm-53.05 311.38c-35.01,0 -61,-27.06 -61,-63.13 0,-35.01 25.99,-62.06 61,-62.06 18.57,0 36.61,4.77 53.05,22.81l0 79.57c-16.45,18.04 -34.48,22.81 -53.05,22.81zm276.39 -198.93c-79.58,0 -134.21,57.29 -134.21,135.27 0,78.51 56.22,135.79 140.57,135.79 60.39,0 108.13,-31.29 123.52,-81.69l-87 0c-7.95,9.55 -19.1,13.79 -38.11,13.79 -35.01,0 -52.51,-20.68 -58.35,-47.21l186.11 0c12.73,-91.24 -41.9,-155.95 -132.52,-155.95zm2.12 63.65c29.09,0 47.65,13.27 52.43,42.97l-107.07 0c6.9,-25.99 24.4,-42.97 54.64,-42.97z"/>
    <path class="fil10" d="M321.53 2814.63l95.49 0 -152.78 -360.71 -85.94 0 -153.3 360.71 95.48 0 23.87 -62.06 152.78 0 24.4 62.06zm-148 -136.86l47.22 -121.48 47.21 121.48 -94.43 0zm332.61 -135.27c0,-25.99 16.97,-42.44 44.56,-42.44 11.14,0 26.53,3.71 39.26,7.96l11.67 -71.61c-26.53,-6.89 -44.56,-10.08 -65.25,-10.08 -65.78,0 -116.18,41.37 -116.18,116.17l0 14.85 -63.12 0 0 73.74 63.12 0 0 183.54 85.94 0 0 -183.54 90.71 0 0 -73.74 -90.71 0 0 -14.85zm253.57 10.61c-38.19,0 -65.78,12.19 -88.59,31.82l0 -27.58 -86.46 0 0 257.28 86.46 0 0 -147.47c20.16,-19.63 46.69,-30.77 88.59,-32.36l0 -81.69zm51.47 -36.07c27.58,0 50.39,-20.69 50.39,-48.27 0,-28.12 -22.81,-48.8 -50.39,-48.8 -28.11,0 -50.4,20.68 -50.4,48.8 0,27.58 22.28,48.27 50.4,48.27zm-42.44 40.31l0 257.28 85.94 0 0 -257.28 -85.94 0zm238.19 191.5c-37.13,0 -58.88,-28.11 -58.88,-63.12 0,-35.01 21.75,-62.6 58.88,-62.6 26,0 46.15,16.44 50.4,39.78l81.16 0c-6.37,-66.3 -61.01,-112.45 -132.09,-112.45 -80.62,0 -140.57,57.29 -140.57,135.27 0,78.51 59.94,135.79 140.57,135.79 71.08,0 125.72,-46.15 132.09,-112.46l-81.16 0c-4.25,23.34 -24.4,39.78 -50.4,39.78zm323.6 -191.5l0 13.27c-19.1,-12.73 -41.91,-20.16 -70.55,-20.16 -69.49,0 -127.84,58.35 -127.84,135.27 0,76.38 58.35,135.79 127.84,135.79 28.64,0 51.45,-7.96 70.55,-20.69l0 13.79 85.94 0 0 -257.28 -85.94 0zm-53.05 190.97c-35.01,0 -61,-27.06 -61,-62.59 0,-35.54 25.99,-62.6 61,-62.6 18.57,0 36.61,4.77 53.05,22.81l0 79.57c-16.44,18.04 -34.48,22.81 -53.05,22.81z"/>
   </g>
   <g id="_2674500900016">
    <g>
    </g>
    <g style="clip-path:url(#id1)">
     <g id="_2674500901136">
      <rect class="fil0" x="3665.72" y="-61" width="319.62" height="157.43" rx="78.72" ry="78.72"/>
      <circle class="fil1" cx="4150.32" cy="17.71" r="79.11"/>
      <rect class="fil2" x="4311.33" y="-61" width="319.62" height="157.43" rx="78.72" ry="78.72"/>
      <circle class="fil3" cx="4795.92" cy="17.71" r="79.11"/>
      <rect class="fil4" x="3665.72" y="158.44" width="319.62" height="157.43" rx="78.72" ry="78.72"/>
      <rect class="fil2" x="4071.21" y="158.44" width="319.62" height="157.43" rx="78.72" ry="78.72"/>
      <rect class="fil1" x="4476.7" y="158.44" width="319.62" height="157.43" rx="78.72" ry="78.72"/>
      <rect class="fil5" x="3665.72" y="375.49" width="319.62" height="157.43" rx="78.72" ry="78.72"/>
      <circle class="fil3" cx="4150.32" cy="454.21" r="79.11"/>
      <circle class="fil6" cx="4392.02" cy="454.21" r="79.11"/>
      <circle class="fil0" cx="3744.83" cy="676.83" r="79.11"/>
      <rect class="fil4" x="4915.26" y="-61" width="319.62" height="157.43" rx="78.72" ry="78.72"/>
      <circle class="fil5" cx="5399.86" cy="17.71" r="79.11"/>
      <rect class="fil2" x="5560.86" y="-61" width="319.62" height="157.43" rx="78.72" ry="78.72"/>
      <circle class="fil3" cx="6045.46" cy="17.71" r="79.11"/>
      <rect class="fil7" x="4534.54" y="375.49" width="319.62" height="157.43" rx="78.72" ry="78.72"/>
      <circle class="fil2" cx="5376.76" cy="454.21" r="79.11"/>
      <circle class="fil3" cx="5618.47" cy="454.21" r="79.11"/>
      <circle class="fil7" cx="5250.99" cy="676.83" r="79.11"/>
      <circle class="fil7" cx="4952.12" cy="237.15" r="79.11"/>
      <rect class="fil1" x="5094.55" y="158.44" width="319.62" height="157.43" rx="78.72" ry="78.72"/>
      <circle class="fil5" cx="5556.05" cy="237.15" r="79.11"/>
      <rect class="fil8" x="4914.35" y="375.49" width="319.62" height="157.43" rx="78.72" ry="78.72"/>
      <rect class="fil4" x="3891.55" y="598.11" width="319.62" height="157.43" rx="78.72" ry="78.72"/>
      <circle class="fil5" cx="4376.15" cy="676.83" r="79.11"/>
      <circle class="fil1" cx="4617.85" cy="676.83" r="79.11"/>
      <rect class="fil5" x="4775.94" y="598.11" width="319.62" height="157.43" rx="78.72" ry="78.72"/>
      <rect class="fil4" x="5395.38" y="598.11" width="319.62" height="157.43" rx="78.72" ry="78.72"/>
      <circle class="fil3" cx="5879.98" cy="676.83" r="79.11"/>
      <rect class="fil3" x="4286.76" y="806.39" width="319.62" height="157.43" rx="78.72" ry="78.72"/>
      <circle class="fil3" cx="4771.35" cy="885.11" r="79.11"/>
      <rect class="fil3" x="4932.36" y="806.39" width="319.62" height="157.43" rx="78.72" ry="78.72"/>
      <circle class="fil3" cx="5416.96" cy="885.11" r="79.11"/>
      <rect class="fil3" x="5536.29" y="806.39" width="319.62" height="157.43" rx="78.72" ry="78.72"/>
      <circle class="fil3" cx="3727.85" cy="885.11" r="79.11"/>
      <rect class="fil3" x="3888.86" y="806.39" width="319.62" height="157.43" rx="78.72" ry="78.72"/>
      <rect class="fil0" x="3665.72" y="1037.35" width="319.62" height="157.43" rx="78.72" ry="78.72"/>
      <circle class="fil1" cx="4150.32" cy="1116.07" r="79.11"/>
      <rect class="fil2" x="4311.33" y="1037.35" width="319.62" height="157.43" rx="78.72" ry="78.72"/>
      <circle class="fil3" cx="4795.92" cy="1116.07" r="79.11"/>
      <rect class="fil4" x="3665.72" y="1256.8" width="319.62" height="157.43" rx="78.72" ry="78.72"/>
      <rect class="fil2" x="4071.21" y="1256.8" width="319.62" height="157.43" rx="78.72" ry="78.72"/>
      <rect class="fil1" x="4476.7" y="1256.8" width="319.62" height="157.43" rx="78.72" ry="78.72"/>
      <rect class="fil5" x="3665.72" y="1473.85" width="319.62" height="157.43" rx="78.72" ry="78.72"/>
      <circle class="fil3" cx="4150.32" cy="1552.57" r="79.11"/>
      <circle class="fil6" cx="4392.02" cy="1552.57" r="79.11"/>
      <circle class="fil0" cx="3744.83" cy="1775.19" r="79.11"/>
      <rect class="fil4" x="4915.26" y="1037.35" width="319.62" height="157.43" rx="78.72" ry="78.72"/>
      <circle class="fil5" cx="5399.86" cy="1116.07" r="79.11"/>
      <rect class="fil2" x="5560.86" y="1037.35" width="319.62" height="157.43" rx="78.72" ry="78.72"/>
      <circle class="fil3" cx="6045.46" cy="1116.07" r="79.11"/>
      <rect class="fil7" x="4534.54" y="1473.85" width="319.62" height="157.43" rx="78.72" ry="78.72"/>
      <circle class="fil2" cx="5376.76" cy="1552.57" r="79.11"/>
      <circle class="fil3" cx="5618.47" cy="1552.57" r="79.11"/>
      <circle class="fil7" cx="5250.99" cy="1775.19" r="79.11"/>
      <circle class="fil7" cx="4952.12" cy="1335.51" r="79.11"/>
      <rect class="fil1" x="5094.55" y="1256.8" width="319.62" height="157.43" rx="78.72" ry="78.72"/>
      <circle class="fil5" cx="5556.05" cy="1335.51" r="79.11"/>
      <rect class="fil8" x="4914.35" y="1473.85" width="319.62" height="157.43" rx="78.72" ry="78.72"/>
      <rect class="fil4" x="3891.55" y="1696.47" width="319.62" height="157.43" rx="78.72" ry="78.72"/>
      <circle class="fil5" cx="4376.15" cy="1775.19" r="79.11"/>
      <circle class="fil1" cx="4617.85" cy="1775.19" r="79.11"/>
      <rect class="fil5" x="4775.94" y="1696.47" width="319.62" height="157.43" rx="78.72" ry="78.72"/>
      <rect class="fil4" x="5395.38" y="1696.47" width="319.62" height="157.43" rx="78.72" ry="78.72"/>
      <circle class="fil3" cx="5879.98" cy="1775.19" r="79.11"/>
      <rect class="fil3" x="4286.76" y="1904.75" width="319.62" height="157.43" rx="78.72" ry="78.72"/>
      <circle class="fil3" cx="4771.35" cy="1983.47" r="79.11"/>
      <rect class="fil3" x="4932.36" y="1904.75" width="319.62" height="157.43" rx="78.72" ry="78.72"/>
      <circle class="fil3" cx="5416.96" cy="1983.47" r="79.11"/>
      <rect class="fil3" x="5536.29" y="1904.75" width="319.62" height="157.43" rx="78.72" ry="78.72"/>
      <circle class="fil3" cx="3727.85" cy="1983.47" r="79.11"/>
      <rect class="fil3" x="3888.86" y="1904.75" width="319.62" height="157.43" rx="78.72" ry="78.72"/>
      <rect class="fil0" x="7865.53" y="168.18" width="319.62" height="157.43" rx="78.72" ry="78.72"/>
      <circle class="fil1" cx="7700.56" cy="246.89" r="79.11"/>
      <rect class="fil2" x="7219.93" y="168.18" width="319.62" height="157.43" rx="78.72" ry="78.72"/>
      <circle class="fil3" cx="7054.95" cy="246.89" r="79.11"/>
      <rect class="fil4" x="7865.53" y="387.62" width="319.62" height="157.43" rx="78.72" ry="78.72"/>
      <rect class="fil2" x="7460.05" y="387.62" width="319.62" height="157.43" rx="78.72" ry="78.72"/>
      <rect class="fil1" x="7054.56" y="387.62" width="319.62" height="157.43" rx="78.72" ry="78.72"/>
      <rect class="fil5" x="7865.53" y="604.67" width="319.62" height="157.43" rx="78.72" ry="78.72"/>
      <circle class="fil3" cx="7700.56" cy="683.39" r="79.11"/>
      <circle class="fil6" cx="7458.85" cy="683.39" r="79.11"/>
      <circle class="fil0" cx="8106.05" cy="906.01" r="79.11"/>
      <rect class="fil4" x="6616" y="168.18" width="319.62" height="157.43" rx="78.72" ry="78.72"/>
      <circle class="fil5" cx="6451.02" cy="246.89" r="79.11"/>
      <rect class="fil2" x="5970.39" y="168.18" width="319.62" height="157.43" rx="78.72" ry="78.72"/>
      <circle class="fil3" cx="5805.42" cy="246.89" r="79.11"/>
      <rect class="fil7" x="6996.72" y="604.67" width="319.62" height="157.43" rx="78.72" ry="78.72"/>
      <circle class="fil2" cx="6474.11" cy="683.39" r="79.11"/>
      <circle class="fil3" cx="6232.41" cy="683.39" r="79.11"/>
      <circle class="fil7" cx="6599.88" cy="906.01" r="79.11"/>
      <circle class="fil7" cx="6898.76" cy="466.33" r="79.11"/>
      <rect class="fil1" x="6436.71" y="387.62" width="319.62" height="157.43" rx="78.72" ry="78.72"/>
      <circle class="fil5" cx="6294.83" cy="466.33" r="79.11"/>
      <rect class="fil8" x="6616.91" y="604.67" width="319.62" height="157.43" rx="78.72" ry="78.72"/>
      <rect class="fil4" x="7639.7" y="827.3" width="319.62" height="157.43" rx="78.72" ry="78.72"/>
      <circle class="fil5" cx="7474.73" cy="906.01" r="79.11"/>
      <circle class="fil1" cx="7233.02" cy="906.01" r="79.11"/>
      <rect class="fil5" x="6755.32" y="827.3" width="319.62" height="157.43" rx="78.72" ry="78.72"/>
      <rect class="fil4" x="6135.88" y="827.3" width="319.62" height="157.43" rx="78.72" ry="78.72"/>
      <circle class="fil3" cx="5970.9" cy="906.01" r="79.11"/>
      <rect class="fil3" x="7244.5" y="1035.57" width="319.62" height="157.43" rx="78.72" ry="78.72"/>
      <circle class="fil3" cx="7079.52" cy="1114.29" r="79.11"/>
      <rect class="fil3" x="6598.9" y="1035.57" width="319.62" height="157.43" rx="78.72" ry="78.72"/>
      <circle class="fil3" cx="6433.92" cy="1114.29" r="79.11"/>
      <rect class="fil3" x="5994.96" y="1035.57" width="319.62" height="157.43" rx="78.72" ry="78.72"/>
      <circle class="fil3" cx="8123.03" cy="1114.29" r="79.11"/>
      <rect class="fil3" x="7642.4" y="1035.57" width="319.62" height="157.43" rx="78.72" ry="78.72"/>
      <rect class="fil0" x="7865.53" y="1266.53" width="319.62" height="157.43" rx="78.72" ry="78.72"/>
      <circle class="fil1" cx="7700.56" cy="1345.25" r="79.11"/>
      <rect class="fil2" x="7219.93" y="1266.53" width="319.62" height="157.43" rx="78.72" ry="78.72"/>
      <circle class="fil3" cx="7054.95" cy="1345.25" r="79.11"/>
      <rect class="fil4" x="7865.53" y="1485.98" width="319.62" height="157.43" rx="78.72" ry="78.72"/>
      <rect class="fil2" x="7460.05" y="1485.98" width="319.62" height="157.43" rx="78.72" ry="78.72"/>
      <rect class="fil1" x="7054.56" y="1485.98" width="319.62" height="157.43" rx="78.72" ry="78.72"/>
      <rect class="fil5" x="7865.53" y="1703.03" width="319.62" height="157.43" rx="78.72" ry="78.72"/>
      <circle class="fil3" cx="7700.56" cy="1781.75" r="79.11"/>
      <circle class="fil6" cx="7458.85" cy="1781.75" r="79.11"/>
      <circle class="fil0" cx="8106.05" cy="2004.37" r="79.11"/>
      <rect class="fil4" x="6616" y="1266.53" width="319.62" height="157.43" rx="78.72" ry="78.72"/>
      <circle class="fil5" cx="6451.02" cy="1345.25" r="79.11"/>
      <rect class="fil2" x="5970.39" y="1266.53" width="319.62" height="157.43" rx="78.72" ry="78.72"/>
      <circle class="fil3" cx="5805.42" cy="1345.25" r="79.11"/>
      <rect class="fil7" x="6996.72" y="1703.03" width="319.62" height="157.43" rx="78.72" ry="78.72"/>
      <circle class="fil2" cx="6474.11" cy="1781.75" r="79.11"/>
      <circle class="fil3" cx="6232.41" cy="1781.75" r="79.11"/>
      <circle class="fil7" cx="6599.88" cy="2004.37" r="79.11"/>
      <circle class="fil7" cx="6898.76" cy="1564.69" r="79.11"/>
      <rect class="fil1" x="6436.71" y="1485.98" width="319.62" height="157.43" rx="78.72" ry="78.72"/>
      <circle class="fil5" cx="6294.83" cy="1564.69" r="79.11"/>
      <rect class="fil8" x="6616.91" y="1703.03" width="319.62" height="157.43" rx="78.72" ry="78.72"/>
      <rect class="fil4" x="7639.7" y="1925.65" width="319.62" height="157.43" rx="78.72" ry="78.72"/>
      <circle class="fil5" cx="7474.73" cy="2004.37" r="79.11"/>
      <circle class="fil1" cx="7233.02" cy="2004.37" r="79.11"/>
      <rect class="fil5" x="6755.32" y="1925.65" width="319.62" height="157.43" rx="78.72" ry="78.72"/>
      <rect class="fil4" x="6135.88" y="1925.65" width="319.62" height="157.43" rx="78.72" ry="78.72"/>
      <circle class="fil3" cx="5970.9" cy="2004.37" r="79.11"/>
      <rect class="fil3" x="7244.5" y="2133.93" width="319.62" height="157.43" rx="78.72" ry="78.72"/>
      <circle class="fil3" cx="7079.52" cy="2212.65" r="79.11"/>
      <rect class="fil3" x="6598.9" y="2133.93" width="319.62" height="157.43" rx="78.72" ry="78.72"/>
      <circle class="fil3" cx="6433.92" cy="2212.65" r="79.11"/>
      <rect class="fil3" x="5994.96" y="2133.93" width="319.62" height="157.43" rx="78.72" ry="78.72"/>
      <circle class="fil3" cx="8123.03" cy="2212.65" r="79.11"/>
      <rect class="fil3" x="7642.4" y="2133.93" width="319.62" height="157.43" rx="78.72" ry="78.72"/>
      <rect class="fil0" x="3701.21" y="2133.91" width="319.62" height="157.43" rx="78.72" ry="78.72"/>
      <circle class="fil1" cx="4185.81" cy="2212.62" r="79.11"/>
      <rect class="fil2" x="4346.82" y="2133.91" width="319.62" height="157.43" rx="78.72" ry="78.72"/>
      <circle class="fil3" cx="4831.41" cy="2212.62" r="79.11"/>
      <rect class="fil4" x="3701.21" y="2353.35" width="319.62" height="157.43" rx="78.72" ry="78.72"/>
      <rect class="fil2" x="4106.7" y="2353.35" width="319.62" height="157.43" rx="78.72" ry="78.72"/>
      <rect class="fil1" x="4512.19" y="2353.35" width="319.62" height="157.43" rx="78.72" ry="78.72"/>
      <rect class="fil5" x="3701.21" y="2570.4" width="319.62" height="157.43" rx="78.72" ry="78.72"/>
      <circle class="fil3" cx="4185.81" cy="2649.12" r="79.11"/>
      <circle class="fil6" cx="4427.51" cy="2649.12" r="79.11"/>
      <circle class="fil0" cx="3780.32" cy="2871.74" r="79.11"/>
      <rect class="fil4" x="4950.75" y="2133.91" width="319.62" height="157.43" rx="78.72" ry="78.72"/>
      <circle class="fil5" cx="5435.35" cy="2212.62" r="79.11"/>
      <rect class="fil2" x="5596.35" y="2133.91" width="319.62" height="157.43" rx="78.72" ry="78.72"/>
      <circle class="fil3" cx="6080.95" cy="2212.62" r="79.11"/>
      <rect class="fil7" x="4570.03" y="2570.4" width="319.62" height="157.43" rx="78.72" ry="78.72"/>
      <circle class="fil2" cx="5412.25" cy="2649.12" r="79.11"/>
      <circle class="fil3" cx="5653.96" cy="2649.12" r="79.11"/>
      <circle class="fil7" cx="5286.48" cy="2871.74" r="79.11"/>
      <circle class="fil7" cx="4987.61" cy="2432.06" r="79.11"/>
      <rect class="fil1" x="5130.04" y="2353.35" width="319.62" height="157.43" rx="78.72" ry="78.72"/>
      <circle class="fil5" cx="5591.54" cy="2432.06" r="79.11"/>
      <rect class="fil8" x="4949.84" y="2570.4" width="319.62" height="157.43" rx="78.72" ry="78.72"/>
      <rect class="fil4" x="3927.04" y="2793.03" width="319.62" height="157.43" rx="78.72" ry="78.72"/>
      <circle class="fil5" cx="4411.64" cy="2871.74" r="79.11"/>
      <circle class="fil1" cx="4653.34" cy="2871.74" r="79.11"/>
      <rect class="fil5" x="4811.43" y="2793.03" width="319.62" height="157.43" rx="78.72" ry="78.72"/>
      <rect class="fil4" x="5430.87" y="2793.03" width="319.62" height="157.43" rx="78.72" ry="78.72"/>
      <circle class="fil3" cx="5915.47" cy="2871.74" r="79.11"/>
      <rect class="fil3" x="4322.25" y="3001.3" width="319.62" height="157.43" rx="78.72" ry="78.72"/>
      <circle class="fil3" cx="4806.84" cy="3080.02" r="79.11"/>
      <rect class="fil3" x="4967.85" y="3001.3" width="319.62" height="157.43" rx="78.72" ry="78.72"/>
      <circle class="fil3" cx="5452.45" cy="3080.02" r="79.11"/>
      <rect class="fil3" x="5571.78" y="3001.3" width="319.62" height="157.43" rx="78.72" ry="78.72"/>
      <circle class="fil3" cx="3763.34" cy="3080.02" r="79.11"/>
      <rect class="fil3" x="3924.35" y="3001.3" width="319.62" height="157.43" rx="78.72" ry="78.72"/>
      <rect class="fil0" x="3701.21" y="3232.27" width="319.62" height="157.43" rx="78.72" ry="78.72"/>
      <circle class="fil1" cx="4185.81" cy="3310.98" r="79.11"/>
      <rect class="fil2" x="4346.82" y="3232.27" width="319.62" height="157.43" rx="78.72" ry="78.72"/>
      <circle class="fil3" cx="4831.41" cy="3310.98" r="79.11"/>
      <rect class="fil4" x="3701.21" y="3451.71" width="319.62" height="157.43" rx="78.72" ry="78.72"/>
      <rect class="fil2" x="4106.7" y="3451.71" width="319.62" height="157.43" rx="78.72" ry="78.72"/>
      <rect class="fil1" x="4512.19" y="3451.71" width="319.62" height="157.43" rx="78.72" ry="78.72"/>
      <rect class="fil5" x="3701.21" y="3668.76" width="319.62" height="157.43" rx="78.72" ry="78.72"/>
      <circle class="fil3" cx="4185.81" cy="3747.48" r="79.11"/>
      <circle class="fil6" cx="4427.51" cy="3747.48" r="79.11"/>
      <circle class="fil0" cx="3780.32" cy="3970.1" r="79.11"/>
      <rect class="fil4" x="4950.75" y="3232.27" width="319.62" height="157.43" rx="78.72" ry="78.72"/>
      <circle class="fil5" cx="5435.35" cy="3310.98" r="79.11"/>
      <rect class="fil2" x="5596.35" y="3232.27" width="319.62" height="157.43" rx="78.72" ry="78.72"/>
      <circle class="fil3" cx="6080.95" cy="3310.98" r="79.11"/>
      <rect class="fil7" x="4570.03" y="3668.76" width="319.62" height="157.43" rx="78.72" ry="78.72"/>
      <circle class="fil2" cx="5412.25" cy="3747.48" r="79.11"/>
      <circle class="fil3" cx="5653.96" cy="3747.48" r="79.11"/>
      <circle class="fil7" cx="5286.48" cy="3970.1" r="79.11"/>
      <circle class="fil7" cx="4987.61" cy="3530.42" r="79.11"/>
      <rect class="fil1" x="5130.04" y="3451.71" width="319.62" height="157.43" rx="78.72" ry="78.72"/>
      <circle class="fil5" cx="5591.54" cy="3530.42" r="79.11"/>
      <rect class="fil8" x="4949.84" y="3668.76" width="319.62" height="157.43" rx="78.72" ry="78.72"/>
      <rect class="fil4" x="3927.04" y="3891.38" width="319.62" height="157.43" rx="78.72" ry="78.72"/>
      <circle class="fil5" cx="4411.64" cy="3970.1" r="79.11"/>
      <circle class="fil1" cx="4653.34" cy="3970.1" r="79.11"/>
      <rect class="fil5" x="4811.43" y="3891.38" width="319.62" height="157.43" rx="78.72" ry="78.72"/>
      <rect class="fil4" x="5430.87" y="3891.38" width="319.62" height="157.43" rx="78.72" ry="78.72"/>
      <circle class="fil3" cx="5915.47" cy="3970.1" r="79.11"/>
      <rect class="fil3" x="4322.25" y="4099.66" width="319.62" height="157.43" rx="78.72" ry="78.72"/>
      <circle class="fil3" cx="4806.84" cy="4178.38" r="79.11"/>
      <rect class="fil3" x="4967.85" y="4099.66" width="319.62" height="157.43" rx="78.72" ry="78.72"/>
      <circle class="fil3" cx="5452.45" cy="4178.38" r="79.11"/>
      <rect class="fil3" x="5571.78" y="4099.66" width="319.62" height="157.43" rx="78.72" ry="78.72"/>
      <circle class="fil3" cx="3763.34" cy="4178.38" r="79.11"/>
      <rect class="fil3" x="3924.35" y="4099.66" width="319.62" height="157.43" rx="78.72" ry="78.72"/>
      <rect class="fil0" x="7901.02" y="2363.09" width="319.62" height="157.43" rx="78.72" ry="78.72"/>
      <circle class="fil1" cx="7736.05" cy="2441.81" r="79.11"/>
      <rect class="fil2" x="7255.42" y="2363.09" width="319.62" height="157.43" rx="78.72" ry="78.72"/>
      <circle class="fil3" cx="7090.44" cy="2441.81" r="79.11"/>
      <rect class="fil4" x="7901.02" y="2582.53" width="319.62" height="157.43" rx="78.72" ry="78.72"/>
      <rect class="fil2" x="7495.54" y="2582.53" width="319.62" height="157.43" rx="78.72" ry="78.72"/>
      <rect class="fil1" x="7090.05" y="2582.53" width="319.62" height="157.43" rx="78.72" ry="78.72"/>
      <rect class="fil5" x="7901.02" y="2799.59" width="319.62" height="157.43" rx="78.72" ry="78.72"/>
      <circle class="fil3" cx="7736.05" cy="2878.3" r="79.11"/>
      <circle class="fil6" cx="7494.34" cy="2878.3" r="79.11"/>
      <circle class="fil0" cx="8141.54" cy="3100.92" r="79.11"/>
      <rect class="fil4" x="6651.49" y="2363.09" width="319.62" height="157.43" rx="78.72" ry="78.72"/>
      <circle class="fil5" cx="6486.51" cy="2441.81" r="79.11"/>
      <rect class="fil2" x="6005.88" y="2363.09" width="319.62" height="157.43" rx="78.72" ry="78.72"/>
      <circle class="fil3" cx="5840.91" cy="2441.81" r="79.11"/>
      <rect class="fil7" x="7032.21" y="2799.59" width="319.62" height="157.43" rx="78.72" ry="78.72"/>
      <circle class="fil2" cx="6509.6" cy="2878.3" r="79.11"/>
      <circle class="fil3" cx="6267.9" cy="2878.3" r="79.11"/>
      <circle class="fil7" cx="6635.37" cy="3100.92" r="79.11"/>
      <circle class="fil7" cx="6934.25" cy="2661.25" r="79.11"/>
      <rect class="fil1" x="6472.2" y="2582.53" width="319.62" height="157.43" rx="78.72" ry="78.72"/>
      <circle class="fil5" cx="6330.32" cy="2661.25" r="79.11"/>
      <rect class="fil8" x="6652.4" y="2799.59" width="319.62" height="157.43" rx="78.72" ry="78.72"/>
      <rect class="fil4" x="7675.19" y="3022.21" width="319.62" height="157.43" rx="78.72" ry="78.72"/>
      <circle class="fil5" cx="7510.22" cy="3100.92" r="79.11"/>
      <circle class="fil1" cx="7268.51" cy="3100.92" r="79.11"/>
      <rect class="fil5" x="6790.81" y="3022.21" width="319.62" height="157.43" rx="78.72" ry="78.72"/>
      <rect class="fil4" x="6171.37" y="3022.21" width="319.62" height="157.43" rx="78.72" ry="78.72"/>
      <circle class="fil3" cx="6006.39" cy="3100.92" r="79.11"/>
      <rect class="fil3" x="7279.99" y="3230.48" width="319.62" height="157.43" rx="78.72" ry="78.72"/>
      <circle class="fil3" cx="7115.01" cy="3309.2" r="79.11"/>
      <rect class="fil3" x="6634.39" y="3230.48" width="319.62" height="157.43" rx="78.72" ry="78.72"/>
      <circle class="fil3" cx="6469.41" cy="3309.2" r="79.11"/>
      <rect class="fil3" x="6030.45" y="3230.48" width="319.62" height="157.43" rx="78.72" ry="78.72"/>
      <circle class="fil3" cx="8158.52" cy="3309.2" r="79.11"/>
      <rect class="fil3" x="7677.89" y="3230.48" width="319.62" height="157.43" rx="78.72" ry="78.72"/>
      <rect class="fil0" x="7901.02" y="3461.45" width="319.62" height="157.43" rx="78.72" ry="78.72"/>
      <circle class="fil1" cx="7736.05" cy="3540.16" r="79.11"/>
      <rect class="fil2" x="7255.42" y="3461.45" width="319.62" height="157.43" rx="78.72" ry="78.72"/>
      <circle class="fil3" cx="7090.44" cy="3540.16" r="79.11"/>
      <rect class="fil4" x="7901.02" y="3680.89" width="319.62" height="157.43" rx="78.72" ry="78.72"/>
      <rect class="fil2" x="7495.54" y="3680.89" width="319.62" height="157.43" rx="78.72" ry="78.72"/>
      <rect class="fil1" x="7090.05" y="3680.89" width="319.62" height="157.43" rx="78.72" ry="78.72"/>
      <rect class="fil5" x="7901.02" y="3897.94" width="319.62" height="157.43" rx="78.72" ry="78.72"/>
      <circle class="fil3" cx="7736.05" cy="3976.66" r="79.11"/>
      <circle class="fil6" cx="7494.34" cy="3976.66" r="79.11"/>
      <circle class="fil0" cx="8141.54" cy="4199.28" r="79.11"/>
      <rect class="fil4" x="6651.49" y="3461.45" width="319.62" height="157.43" rx="78.72" ry="78.72"/>
      <circle class="fil5" cx="6486.51" cy="3540.16" r="79.11"/>
      <rect class="fil2" x="6005.88" y="3461.45" width="319.62" height="157.43" rx="78.72" ry="78.72"/>
      <circle class="fil3" cx="5840.91" cy="3540.16" r="79.11"/>
      <rect class="fil7" x="7032.21" y="3897.94" width="319.62" height="157.43" rx="78.72" ry="78.72"/>
      <circle class="fil2" cx="6509.6" cy="3976.66" r="79.11"/>
      <circle class="fil3" cx="6267.9" cy="3976.66" r="79.11"/>
      <circle class="fil7" cx="6635.37" cy="4199.28" r="79.11"/>
      <circle class="fil7" cx="6934.25" cy="3759.6" r="79.11"/>
      <rect class="fil1" x="6472.2" y="3680.89" width="319.62" height="157.43" rx="78.72" ry="78.72"/>
      <circle class="fil5" cx="6330.32" cy="3759.6" r="79.11"/>
      <rect class="fil8" x="6652.4" y="3897.94" width="319.62" height="157.43" rx="78.72" ry="78.72"/>
      <rect class="fil4" x="7675.19" y="4120.57" width="319.62" height="157.43" rx="78.72" ry="78.72"/>
      <circle class="fil5" cx="7510.22" cy="4199.28" r="79.11"/>
      <circle class="fil1" cx="7268.51" cy="4199.28" r="79.11"/>
      <rect class="fil5" x="6790.81" y="4120.57" width="319.62" height="157.43" rx="78.72" ry="78.72"/>
      <rect class="fil4" x="6171.37" y="4120.57" width="319.62" height="157.43" rx="78.72" ry="78.72"/>
      <circle class="fil3" cx="6006.39" cy="4199.28" r="79.11"/>
      <rect class="fil3" x="7279.99" y="4328.84" width="319.62" height="157.43" rx="78.72" ry="78.72"/>
      <circle class="fil3" cx="7115.01" cy="4407.56" r="79.11"/>
      <rect class="fil3" x="6634.39" y="4328.84" width="319.62" height="157.43" rx="78.72" ry="78.72"/>
      <circle class="fil3" cx="6469.41" cy="4407.56" r="79.11"/>
      <rect class="fil3" x="6030.45" y="4328.84" width="319.62" height="157.43" rx="78.72" ry="78.72"/>
      <circle class="fil3" cx="8158.52" cy="4407.56" r="79.11"/>
      <rect class="fil3" x="7677.89" y="4328.84" width="319.62" height="157.43" rx="78.72" ry="78.72"/>
     </g>
    </g>
    <path class="fil9" d="M3771.36 872.7c-60.05,26.83 -24.78,73.43 -10.01,93.43 24.86,33.66 11.63,6.6 10.46,48.41 -2.3,83.18 34.98,-0.66 -3.53,171.35 -21.58,96.41 -17.61,42.01 -37.62,92.71 30.44,60.75 19.49,21.86 24.78,94.79 4.16,57.5 38.73,54.7 55,68.46l112.3 118.62c67.13,152.61 -22.87,33.85 106.5,127.2 24.26,17.51 48.64,30.53 70.43,49.95 140.8,125.49 130.87,43.6 235.53,32.79 76.76,-7.92 150,23.17 202.78,2.97 27.3,-10.43 50.35,-23.04 85.2,-32.68 16.59,-4.59 22.03,-6.07 25.57,-7.51 -30.96,-8.27 -60.18,-24.49 -84.35,-48.67l-605.52 -605.52c-6.86,-5.19 -13.44,-10.89 -19.7,-17.13l0 0c-37.05,-37.05 -55.43,-85.99 -55.09,-134.82 -0.34,-48.84 18.04,-97.78 55.09,-134.83l0 0c6.25,-6.25 12.84,-11.94 19.7,-17.14l605.52 -605.52c73.45,-73.48 193.63,-73.48 267.08,0l0 0c73.47,73.45 73.44,193.65 0,267.08l-490.39 490.4 490.39 490.38c73.44,73.44 73.47,193.63 0,267.09l0 0c-8.25,8.26 -17.09,15.57 -26.39,21.97 7.85,0.67 14.36,1.65 18.94,2.85 21.75,5.76 24.01,12.04 33.95,26.53 13.45,19.61 3.83,13.96 21.8,31.69 3.89,21.55 3.39,21.1 14.47,35.07l408.15 -1523.25c-44.87,-3.95 -94.89,0.2 -135.64,-47.78 -26.28,-30.95 -12.28,-0.61 -50.09,-18.68 2.08,-47.43 28.01,-32.88 42.64,-65.06 20.65,-45.42 -6.06,-44.01 -22.65,-73.18 12.18,-34.39 23.95,-15.18 28.76,-58.23 -77.27,19.92 1.81,9.68 -65.08,-16.47 -44.47,4.04 -46.11,22.5 -93.99,21.32 -53.28,-1.3 -54.68,-5.12 -108.65,6.69 -51.59,11.29 -38.57,-8.82 -96.31,-3.44 -30.08,2.79 -61.48,14.03 -93.26,18.53 -44.13,6.24 -52.92,1.91 -86.2,26.08 -38.16,27.71 -45.57,15.54 -75.36,37.1 -36.71,26.57 -18.77,34.05 -78.32,24.38l-55.23 -4.17c-22.62,0.53 -30.82,1.93 -54.62,0.29 -20.88,-24.38 -28.07,-59.83 -55.95,-25.74 -47.98,58.64 7.17,80.96 -107.04,134.82 -23.92,11.28 -19.91,7.11 -36.42,24.61 -17.08,18.12 -17.16,16.59 -18.82,36.85 -80.32,104.43 3.38,103.72 -51.26,175.87 -58.98,77.87 -124.33,81.04 -149.63,91.01 -59.71,148.46 -52.81,26.29 -87.29,155.28 -13.79,51.6 -74.34,70.66 -80.64,153.2zm1384.88 1338.57c26.12,25.1 49.54,50.63 61.13,85.85l57.42 138.9c13.05,44.49 -30.15,51.75 10.63,110.83l22.93 23.2c-11.56,51 6.82,52.51 -25,87.15 -19.27,21 -29.91,27.32 -44.29,58.01 -4.45,9.51 -10.52,28.38 -16.6,50.81 54.7,-16.16 112.58,-24.88 172.52,-24.88 335.65,0 607.75,272.1 607.75,607.74 0,218.13 -114.93,409.38 -287.52,516.59 24.01,-4.89 56.77,-8.4 107.55,-8.28 40.17,0.08 139.92,-16.81 163.23,-33.23 3.4,-2.39 13.25,-14.78 16.17,-18.84l12.21 -19.04c28.61,-9.41 56.24,-43.72 80.14,-68.34l43.88 -34.98c24.14,-19.37 8.02,-6.59 21.87,-43.41 47.9,-127.28 64.27,-52.29 87.06,-111.73l22.11 -90.53 -0.93 -80.62c13.29,-3.02 112.61,-46.17 132.76,-57.01 2.72,-47.73 3.94,-106.29 -3.18,-139.96 -11.82,-55.86 -30.15,-55.36 -27.13,-109.43 4.61,-14.15 58.46,-40.24 108.7,-99.73 33.98,-40.24 83.41,-44.08 126.53,-71.34 39.19,-24.78 70.11,-75.22 60.71,-131.51 -10.99,-65.7 -5.81,-125.78 -10.74,-187.58 -17.65,-17.7 -21.41,-12.33 -33.53,-34.82 -15.4,-28.6 1.56,-28.63 -22.05,-42.15 -4.74,-115.48 15.76,-89.55 -29.07,-146.61 7.26,-31.52 64.49,-160.95 80.88,-176.05 21.6,-19.89 40.14,-18.32 68.18,-60.83 100.42,-152.33 291.47,-217.99 314.68,-306.98 35.79,-14.33 8.22,3.95 35.03,-39.7 10.2,-16.62 17.08,-25.18 23.02,-46.22 10.98,-38.87 -0.71,-22.32 19.33,-48.86 1,-1.32 2.85,-3.04 3.89,-4.37l11.16 -14.97c51.82,-77.16 68.65,-119.69 70.55,-212.58l-308.81 67.89c-61.3,17.44 -92.55,-45.61 -93.6,-66.31l3.02 -36.97c-37.33,-30.73 -89.24,-92.6 -116.9,-111.24l-54.51 -30.94c-35.26,-26.13 -31.88,-47.22 -45,-93.28 -22.95,-80.64 -79.54,-65.72 -89.34,-134.46 -13.13,-92.14 10.18,-122.98 -64.21,-165.47 -44.61,-54.62 0.43,-34.77 -42.02,-106.17 -15.69,-26.39 -38.48,-69.75 -50.07,-95.29l-33.75 -87.4c-0.93,-1.74 -2.15,-3.92 -3.16,-5.58 -9.87,-16.32 -58.54,-77.03 -47.24,-104.5 10.2,18.23 21.98,40.14 31.37,59.26 15.19,30.94 15.13,39.44 54.63,47.14l31.04 -100.41c-0.38,-17.22 -22.69,-75.45 -31.04,-92.22 -30.46,2.79 -78.35,10.73 -100.78,2.17 -39.72,-15.16 11.7,-6.64 -40.85,-18.94 -66.62,-15.58 -80.34,41.44 -128.5,34.59 -51.09,-7.28 -58.02,-26.37 -151.83,-38.12 -64.07,-8.02 -18.78,-11.25 -68.41,-25.6 -1.59,-0.46 -18.06,-3.44 -22.08,-4.29 -69.47,-14.84 -43.53,-60.74 -129.9,-47.09l-1.05 0.18 -499.49 1864.09c-7.61,28.39 -21.39,53.56 -39.53,74.44zm109.35 850.37c42.53,84 24.8,82.3 72.03,117.42 3.67,78.32 5.09,129.27 20.75,199.62 20.97,94.16 15.99,70.6 62.74,138.58 30.57,38.01 48.68,89.62 67.37,132.48 128.29,-39.83 221.46,-159.46 221.46,-300.85 0,-173.95 -141.01,-314.96 -314.96,-314.96 -46.12,0 -89.91,9.91 -129.38,27.72zm611.83 -2040.34l0 0c-73.47,73.46 -73.44,193.65 0,267.08l490.39 490.4 -490.39 490.38c-73.44,73.44 -73.47,193.63 0,267.09l0 0c73.45,73.48 193.63,73.48 267.09,0l605.52 -605.52c6.85,-5.2 13.45,-10.89 19.69,-17.14l0 0c37.05,-37.05 55.43,-85.99 55.09,-134.82 0.34,-48.84 -18.04,-97.78 -55.09,-134.83l0 0c-6.24,-6.25 -12.84,-11.94 -19.69,-17.14l-605.52 -605.52c-73.46,-73.48 -193.64,-73.48 -267.09,0z"/>
    <path class="fil11" d="M4070.51 2348.36c-58.89,0 -99.73,-43.5 -99.73,-103.44 0,-59.94 40.85,-103.44 99.73,-103.44 47.74,0 79.57,27.58 89.12,72.67l92.3 0c-11.68,-93.36 -82.75,-156.49 -180.9,-156.49 -108.74,0 -190.97,78.51 -190.97,187.26 0,108.75 82.22,187.25 190.97,187.25 98.14,0 169.22,-63.13 180.9,-156.48l-92.3 0c-9.55,45.09 -41.38,72.67 -89.12,72.67zm315.63 -187.26c-82.75,0 -141.63,56.76 -141.63,135.8 0,79.57 58.88,135.27 141.63,135.27 82.75,0 141.1,-55.7 141.1,-135.27 0,-79.04 -58.35,-135.8 -141.1,-135.8zm0 199.45c-36.07,0 -61.01,-25.99 -61.01,-63.66 0,-37.13 24.94,-63.65 61.01,-63.65 35.54,0 60.47,26.52 60.47,63.65 0,37.66 -24.93,63.66 -60.47,63.66zm333.15 -311.91l0 133.67c-19.1,-12.73 -41.91,-20.15 -70.55,-20.15 -69.49,0 -127.84,58.35 -127.84,134.73 0,76.91 58.35,135.27 127.84,135.27 28.64,0 51.45,-7.42 70.55,-19.63l0 12.73 85.94 0 0 -376.63 -85.94 0zm-53.05 311.38c-35.01,0 -61,-27.06 -61,-63.13 0,-35.01 25.99,-62.06 61,-62.06 18.57,0 36.61,4.77 53.05,22.81l0 79.57c-16.45,18.04 -34.48,22.81 -53.05,22.81zm276.39 -198.93c-79.58,0 -134.21,57.29 -134.21,135.27 0,78.51 56.22,135.79 140.57,135.79 60.39,0 108.13,-31.29 123.52,-81.69l-87 0c-7.95,9.55 -19.1,13.79 -38.11,13.79 -35.01,0 -52.51,-20.68 -58.35,-47.21l186.11 0c12.73,-91.24 -41.9,-155.95 -132.52,-155.95zm2.12 63.65c29.09,0 47.65,13.27 52.43,42.97l-107.07 0c6.9,-25.99 24.4,-42.97 54.64,-42.97z"/>
    <path class="fil11" d="M4052.21 2814.63l95.49 0 -152.78 -360.71 -85.94 0 -153.3 360.71 95.48 0 23.87 -62.06 152.78 0 24.4 62.06zm-148 -136.86l47.22 -121.48 47.21 121.48 -94.43 0zm332.61 -135.27c0,-25.99 16.97,-42.44 44.56,-42.44 11.14,0 26.53,3.71 39.26,7.96l11.67 -71.61c-26.53,-6.89 -44.56,-10.08 -65.25,-10.08 -65.78,0 -116.18,41.37 -116.18,116.17l0 14.85 -63.12 0 0 73.74 63.12 0 0 183.54 85.94 0 0 -183.54 90.71 0 0 -73.74 -90.71 0 0 -14.85zm253.57 10.61c-38.19,0 -65.78,12.19 -88.59,31.82l0 -27.58 -86.46 0 0 257.28 86.46 0 0 -147.47c20.16,-19.63 46.69,-30.77 88.59,-32.36l0 -81.69zm51.47 -36.07c27.58,0 50.39,-20.69 50.39,-48.27 0,-28.12 -22.81,-48.8 -50.39,-48.8 -28.11,0 -50.4,20.68 -50.4,48.8 0,27.58 22.28,48.27 50.4,48.27zm-42.44 40.31l0 257.28 85.94 0 0 -257.28 -85.94 0zm238.19 191.5c-37.13,0 -58.88,-28.11 -58.88,-63.12 0,-35.01 21.75,-62.6 58.88,-62.6 26,0 46.15,16.44 50.4,39.78l81.16 0c-6.37,-66.3 -61.01,-112.45 -132.09,-112.45 -80.62,0 -140.57,57.29 -140.57,135.27 0,78.51 59.94,135.79 140.57,135.79 71.08,0 125.72,-46.15 132.09,-112.46l-81.16 0c-4.25,23.34 -24.4,39.78 -50.4,39.78zm323.6 -191.5l0 13.27c-19.1,-12.73 -41.91,-20.16 -70.55,-20.16 -69.49,0 -127.84,58.35 -127.84,135.27 0,76.38 58.35,135.79 127.84,135.79 28.64,0 51.45,-7.96 70.55,-20.69l0 13.79 85.94 0 0 -257.28 -85.94 0zm-53.05 190.97c-35.01,0 -61,-27.06 -61,-62.59 0,-35.54 25.99,-62.6 61,-62.6 18.57,0 36.61,4.77 53.05,22.81l0 79.57c-16.44,18.04 -34.48,22.81 -53.05,22.81z"/>
   </g>
  </g>
 </g>
</svg>
